<svg width="250" height="250" viewBox="-125 -125 250 250" role="img" aria-label="Animated bloub avatar" xmlns="http://www.w3.org/2000/svg"><defs><mask id="bot-mask-2wor7l" maskUnits="userSpaceOnUse" x="-158" y="-158" width="316" height="316"><path d="M91.76 0.33C93.06 3.31 94.09 6.47 94.78 9.65C95.47 12.82 95.86 16.12 95.92 19.37C95.98 22.62 95.71 25.93 95.13 29.13C94.56 32.33 93.65 35.53 92.46 38.55C91.27 41.57 89.75 44.53 87.99 47.26C86.23 49.99 84.17 52.6 81.91 54.93C79.65 57.27 77.12 59.42 74.45 61.27C71.77 63.12 68.87 64.74 65.89 66.03C62.91 67.32 59.74 68.34 56.56 69.02C53.38 69.7 49.48 68.96 46.83 70.13C44.18 71.31 42.86 74.23 40.67 76.06C38.47 77.9 36.12 79.62 33.66 81.14C31.2 82.65 28.59 84.02 25.92 85.17C23.25 86.32 20.46 87.3 17.64 88.05C14.81 88.81 11.9 89.36 8.99 89.69C6.08 90.03 3.11 90.15 0.19 90.05C-2.74 89.95 -5.69 89.63 -8.56 89.11C-11.43 88.59 -14.29 87.84 -17.04 86.91C-19.78 85.98 -22.49 84.84 -25.05 83.53C-27.62 82.22 -30.07 80.66 -32.42 79.06C-34.78 77.46 -36.4 74.8 -39.16 73.94C-41.91 73.07 -45.7 74.19 -48.95 73.87C-52.2 73.55 -55.49 72.92 -58.64 72.01C-61.79 71.1 -64.93 69.87 -67.88 68.39C-70.82 66.91 -73.69 65.12 -76.32 63.12C-78.95 61.11 -81.45 58.82 -83.67 56.36C-85.89 53.9 -87.92 51.18 -89.65 48.35C-91.38 45.51 -92.87 42.47 -94.05 39.36C-95.23 36.26 -96.13 32.99 -96.71 29.72C-97.29 26.46 -97.57 23.08 -97.54 19.77C-97.51 16.46 -97.17 13.09 -96.53 9.85C-95.89 6.61 -94.93 3.38 -93.72 0.33C-92.5 -2.73 -90.97 -5.71 -89.23 -8.48C-87.48 -11.24 -85.45 -13.88 -83.25 -16.27C-81.05 -18.65 -77.97 -20.6 -76.03 -22.79C-74.09 -24.98 -72.47 -26.93 -71.62 -29.41C-70.77 -31.89 -71.4 -34.96 -70.93 -37.68C-70.46 -40.41 -69.74 -43.15 -68.8 -45.77C-67.86 -48.39 -66.67 -50.97 -65.28 -53.4C-63.89 -55.82 -62.25 -58.16 -60.45 -60.31C-58.66 -62.46 -56.63 -64.49 -54.48 -66.29C-52.33 -68.09 -49.98 -69.72 -47.55 -71.12C-45.12 -72.51 -42.52 -73.71 -39.89 -74.65C-37.26 -75.6 -34.5 -76.32 -31.75 -76.78C-29.01 -77.25 -26.18 -77.47 -23.41 -77.46C-20.64 -77.44 -17.83 -77.17 -15.13 -76.68C-12.43 -76.18 -9.74 -75.44 -7.18 -74.5C-4.63 -73.56 -2.14 -72.38 0.19 -71.04C2.51 -69.71 4.63 -67.64 6.77 -66.47C8.9 -65.3 10.71 -64.02 12.98 -64.01C15.26 -64 17.89 -65.83 20.43 -66.41C22.98 -66.98 25.63 -67.34 28.26 -67.45C30.89 -67.56 33.59 -67.43 36.21 -67.06C38.83 -66.69 41.47 -66.07 43.99 -65.23C46.51 -64.39 49.01 -63.3 51.34 -62C53.68 -60.71 55.93 -59.18 58 -57.48C60.06 -55.78 62 -53.86 63.72 -51.81C65.44 -49.76 66.99 -47.52 68.31 -45.19C69.62 -42.86 70.74 -40.37 71.61 -37.85C72.48 -35.32 73.12 -32.68 73.51 -30.04C73.9 -27.41 72.77 -24.44 73.96 -22.05C75.14 -19.65 78.45 -17.98 80.62 -15.67C82.79 -13.37 85.12 -10.89 86.98 -8.22C88.84 -5.55 90.46 -2.65 91.76 0.33Z" fill="#fff"/><path d="M-13.5 0A8.5 8.5 0 0 1 -5 -8.5L5 -8.5A8.5 8.5 0 0 1 13.5 0L13.5 0A8.5 8.5 0 0 1 5 8.5L-5 8.5A8.5 8.5 0 0 1 -13.5 0Z" class="oeil0" opacity="1" fill="#000"/><path d="M-13.5 0A8.5 8.5 0 0 1 -5 -8.5L5 -8.5A8.5 8.5 0 0 1 13.5 0L13.5 0A8.5 8.5 0 0 1 5 8.5L-5 8.5A8.5 8.5 0 0 1 -13.5 0Z" class="oeil1" opacity="1" fill="#000"/></mask></defs><g fill="none" stroke-linecap="round"></g><g opacity="1"><path d="M91.76 0.33C93.06 3.31 94.09 6.47 94.78 9.65C95.47 12.82 95.86 16.12 95.92 19.37C95.98 22.62 95.71 25.93 95.13 29.13C94.56 32.33 93.65 35.53 92.46 38.55C91.27 41.57 89.75 44.53 87.99 47.26C86.23 49.99 84.17 52.6 81.91 54.93C79.65 57.27 77.12 59.42 74.45 61.27C71.77 63.12 68.87 64.74 65.89 66.03C62.91 67.32 59.74 68.34 56.56 69.02C53.38 69.7 49.48 68.96 46.83 70.13C44.18 71.31 42.86 74.23 40.67 76.06C38.47 77.9 36.12 79.62 33.66 81.14C31.2 82.65 28.59 84.02 25.92 85.17C23.25 86.32 20.46 87.3 17.64 88.05C14.81 88.81 11.9 89.36 8.99 89.69C6.08 90.03 3.11 90.15 0.19 90.05C-2.74 89.95 -5.69 89.63 -8.56 89.11C-11.43 88.59 -14.29 87.84 -17.04 86.91C-19.78 85.98 -22.49 84.84 -25.05 83.53C-27.62 82.22 -30.07 80.66 -32.42 79.06C-34.78 77.46 -36.4 74.8 -39.16 73.94C-41.91 73.07 -45.7 74.19 -48.95 73.87C-52.2 73.55 -55.49 72.92 -58.64 72.01C-61.79 71.1 -64.93 69.87 -67.88 68.39C-70.82 66.91 -73.69 65.12 -76.32 63.12C-78.95 61.11 -81.45 58.82 -83.67 56.36C-85.89 53.9 -87.92 51.18 -89.65 48.35C-91.38 45.51 -92.87 42.47 -94.05 39.36C-95.23 36.26 -96.13 32.99 -96.71 29.72C-97.29 26.46 -97.57 23.08 -97.54 19.77C-97.51 16.46 -97.17 13.09 -96.53 9.85C-95.89 6.61 -94.93 3.38 -93.72 0.33C-92.5 -2.73 -90.97 -5.71 -89.23 -8.48C-87.48 -11.24 -85.45 -13.88 -83.25 -16.27C-81.05 -18.65 -77.97 -20.6 -76.03 -22.79C-74.09 -24.98 -72.47 -26.93 -71.62 -29.41C-70.77 -31.89 -71.4 -34.96 -70.93 -37.68C-70.46 -40.41 -69.74 -43.15 -68.8 -45.77C-67.86 -48.39 -66.67 -50.97 -65.28 -53.4C-63.89 -55.82 -62.25 -58.16 -60.45 -60.31C-58.66 -62.46 -56.63 -64.49 -54.48 -66.29C-52.33 -68.09 -49.98 -69.72 -47.55 -71.12C-45.12 -72.51 -42.52 -73.71 -39.89 -74.65C-37.26 -75.6 -34.5 -76.32 -31.75 -76.78C-29.01 -77.25 -26.18 -77.47 -23.41 -77.46C-20.64 -77.44 -17.83 -77.17 -15.13 -76.68C-12.43 -76.18 -9.74 -75.44 -7.18 -74.5C-4.63 -73.56 -2.14 -72.38 0.19 -71.04C2.51 -69.71 4.63 -67.64 6.77 -66.47C8.9 -65.3 10.71 -64.02 12.98 -64.01C15.26 -64 17.89 -65.83 20.43 -66.41C22.98 -66.98 25.63 -67.34 28.26 -67.45C30.89 -67.56 33.59 -67.43 36.21 -67.06C38.83 -66.69 41.47 -66.07 43.99 -65.23C46.51 -64.39 49.01 -63.3 51.34 -62C53.68 -60.71 55.93 -59.18 58 -57.48C60.06 -55.78 62 -53.86 63.72 -51.81C65.44 -49.76 66.99 -47.52 68.31 -45.19C69.62 -42.86 70.74 -40.37 71.61 -37.85C72.48 -35.32 73.12 -32.68 73.51 -30.04C73.9 -27.41 72.77 -24.44 73.96 -22.05C75.14 -19.65 78.45 -17.98 80.62 -15.67C82.79 -13.37 85.12 -10.89 86.98 -8.22C88.84 -5.55 90.46 -2.65 91.76 0.33Z" fill="#f9f9f9"/><g mask="url(#bot-mask-2wor7l)"><rect x="-158" y="-158" width="316" height="316" fill="#0a0a0c"/></g></g><g></g><g fill="none" stroke-linecap="round"></g><style>.oeil0,.oeil1{transform-box:view-box;transform-origin:0 0;animation-duration:2.967s;animation-iteration-count:infinite;animation-timing-function:linear;animation-direction:alternate}.oeil0{animation-name:oeil0}.oeil1{animation-name:oeil1}@keyframes oeil0{0%{transform:matrix(0.96,0.18,-0.21,0.97,-13.32,-15.56)}1.124%{transform:matrix(0.96,0.18,-0.21,0.97,-13.34,-15.51)}2.247%{transform:matrix(0.96,0.18,-0.21,0.97,-13.36,-15.46)}3.371%{transform:matrix(0.96,0.18,-0.21,0.97,-13.39,-15.41)}4.494%{transform:matrix(0.96,0.18,-0.21,0.97,-13.42,-15.37)}5.618%{transform:matrix(0.96,0.18,-0.21,0.97,-13.46,-15.33)}6.742%{transform:matrix(0.96,0.18,-0.21,0.97,-13.51,-15.3)}7.865%{transform:matrix(0.96,0.18,-0.21,0.97,-13.57,-15.27)}8.989%{transform:matrix(0.96,0.18,-0.21,0.97,-13.63,-15.25)}10.112%{transform:matrix(0.96,0.18,-0.21,0.97,-13.7,-15.23)}11.236%{transform:matrix(0.96,0.18,-0.21,0.97,-13.77,-15.22)}12.36%{transform:matrix(0.96,0.18,-0.21,0.97,-13.85,-15.21)}13.483%{transform:matrix(0.96,0.18,-0.21,0.97,-13.93,-15.2)}14.607%{transform:matrix(0.96,0.18,-0.21,0.97,-14.02,-15.2)}15.73%{transform:matrix(0.96,0.18,-0.21,0.97,-14.1,-15.2)}16.854%{transform:matrix(0.96,0.18,-0.21,0.97,-14.18,-15.2)}17.978%{transform:matrix(0.96,0.18,-0.21,0.97,-14.26,-15.2)}19.101%{transform:matrix(0.96,0.18,-0.21,0.97,-14.34,-15.2)}20.225%{transform:matrix(0.96,0.18,-0.21,0.97,-14.42,-15.21)}21.348%{transform:matrix(0.96,0.18,-0.21,0.97,-14.49,-15.21)}22.472%{transform:matrix(0.96,0.18,-0.21,0.97,-14.56,-15.21)}23.596%{transform:matrix(0.96,0.18,-0.21,0.97,-14.62,-15.21)}24.719%{transform:matrix(0.96,0.18,-0.21,0.97,-14.68,-15.21)}25.843%{transform:matrix(0.96,0.18,-0.21,0.97,-14.73,-15.2)}26.966%{transform:matrix(0.96,0.18,-0.21,0.97,-14.78,-15.19)}28.09%{transform:matrix(0.96,0.18,-0.21,0.97,-14.83,-15.18)}29.213%{transform:matrix(0.96,0.18,-0.21,0.97,-14.87,-15.16)}30.337%{transform:matrix(0.96,0.18,-0.21,0.97,-14.91,-15.14)}31.461%{transform:matrix(0.96,0.18,-0.21,0.97,-14.95,-15.11)}32.584%{transform:matrix(0.96,0.18,-0.21,0.97,-14.99,-15.08)}33.708%{transform:matrix(0.96,0.18,-0.21,0.97,-15.03,-15.04)}34.831%{transform:matrix(0.96,0.18,-0.21,0.97,-15.07,-15)}35.955%{transform:matrix(0.96,0.18,-0.21,0.97,-15.12,-14.96)}37.079%{transform:matrix(0.96,0.18,-0.21,0.97,-15.16,-14.91)}38.202%{transform:matrix(0.96,0.18,-0.21,0.97,-15.21,-14.86)}39.326%{transform:matrix(0.96,0.18,-0.21,0.97,-15.27,-14.8)}40.449%{transform:matrix(0.96,0.18,-0.21,0.97,-15.33,-14.74)}41.573%{transform:matrix(0.96,0.18,-0.21,0.97,-15.4,-14.68)}42.697%{transform:matrix(0.96,0.18,-0.21,0.97,-15.48,-14.62)}43.82%{transform:matrix(0.96,0.18,-0.21,0.97,-15.56,-14.56)}44.944%{transform:matrix(0.96,0.18,-0.21,0.97,-15.65,-14.5)}46.067%{transform:matrix(0.96,0.18,-0.21,0.97,-15.75,-14.43)}47.191%{transform:matrix(0.96,0.18,-0.21,0.97,-15.85,-14.37)}48.315%{transform:matrix(0.96,0.11,-0.21,0.59,-15.96,-14.31)}49.438%{transform:matrix(0.96,0.04,-0.21,0.22,-16.06,-14.25)}50.562%{transform:matrix(0.96,0.04,-0.21,0.23,-16.17,-14.2)}51.685%{transform:matrix(0.96,0.1,-0.21,0.54,-16.28,-14.14)}52.809%{transform:matrix(0.96,0.16,-0.21,0.85,-16.38,-14.09)}53.933%{transform:matrix(0.96,0.18,-0.21,0.97,-16.48,-14.04)}55.056%{transform:matrix(0.96,0.18,-0.21,0.97,-16.57,-13.99)}56.18%{transform:matrix(0.96,0.18,-0.21,0.97,-16.66,-13.94)}57.303%{transform:matrix(0.96,0.18,-0.21,0.97,-16.73,-13.89)}58.427%{transform:matrix(0.96,0.18,-0.21,0.97,-16.79,-13.85)}59.551%{transform:matrix(0.96,0.18,-0.21,0.97,-16.83,-13.8)}60.674%{transform:matrix(0.96,0.18,-0.21,0.97,-16.86,-13.76)}61.798%{transform:matrix(0.96,0.18,-0.21,0.97,-16.87,-13.71)}62.921%{transform:matrix(0.96,0.18,-0.21,0.97,-16.85,-13.66)}64.045%{transform:matrix(0.96,0.18,-0.21,0.97,-16.82,-13.61)}65.169%{transform:matrix(0.96,0.18,-0.21,0.97,-16.77,-13.56)}66.292%{transform:matrix(0.96,0.18,-0.21,0.97,-16.7,-13.5)}67.416%{transform:matrix(0.96,0.18,-0.21,0.97,-16.61,-13.44)}68.539%{transform:matrix(0.96,0.18,-0.21,0.97,-16.5,-13.38)}69.663%{transform:matrix(0.96,0.18,-0.21,0.97,-16.37,-13.31)}70.787%{transform:matrix(0.96,0.18,-0.21,0.97,-16.23,-13.24)}71.91%{transform:matrix(0.96,0.18,-0.21,0.97,-16.07,-13.16)}73.034%{transform:matrix(0.96,0.18,-0.21,0.97,-15.89,-13.07)}74.157%{transform:matrix(0.96,0.18,-0.21,0.97,-15.71,-12.98)}75.281%{transform:matrix(0.96,0.18,-0.21,0.97,-15.51,-12.88)}76.404%{transform:matrix(0.96,0.19,-0.21,0.97,-15.31,-12.77)}77.528%{transform:matrix(0.96,0.19,-0.21,0.97,-15.11,-12.66)}78.652%{transform:matrix(0.96,0.19,-0.21,0.97,-14.91,-12.54)}79.775%{transform:matrix(0.96,0.19,-0.21,0.97,-14.71,-12.42)}80.899%{transform:matrix(0.96,0.19,-0.21,0.97,-14.51,-12.3)}82.022%{transform:matrix(0.96,0.19,-0.21,0.97,-14.33,-12.17)}83.146%{transform:matrix(0.96,0.19,-0.21,0.97,-14.15,-12.04)}84.27%{transform:matrix(0.96,0.19,-0.21,0.97,-13.99,-11.91)}85.393%{transform:matrix(0.96,0.19,-0.21,0.97,-13.84,-11.78)}86.517%{transform:matrix(0.96,0.19,-0.21,0.97,-13.72,-11.65)}87.64%{transform:matrix(0.96,0.19,-0.21,0.97,-13.6,-11.52)}88.764%{transform:matrix(0.97,0.19,-0.21,0.97,-13.51,-11.4)}89.888%{transform:matrix(0.97,0.19,-0.21,0.97,-13.44,-11.28)}91.011%{transform:matrix(0.97,0.19,-0.21,0.97,-13.39,-11.18)}92.135%{transform:matrix(0.97,0.19,-0.21,0.97,-13.36,-11.08)}93.258%{transform:matrix(0.97,0.19,-0.21,0.97,-13.35,-10.99)}94.382%{transform:matrix(0.97,0.19,-0.21,0.97,-13.36,-10.91)}95.506%{transform:matrix(0.97,0.19,-0.21,0.97,-13.39,-10.85)}96.629%{transform:matrix(0.97,0.19,-0.21,0.97,-13.42,-10.79)}97.753%{transform:matrix(0.97,0.19,-0.21,0.97,-13.48,-10.75)}98.876%{transform:matrix(0.97,0.19,-0.21,0.97,-13.55,-10.73)}100%{transform:matrix(0.97,0.19,-0.21,0.97,-13.63,-10.72)}}@keyframes oeil1{0%{transform:matrix(0.87,-0.18,0.25,0.97,33.82,-14.39)}1.124%{transform:matrix(0.87,-0.18,0.25,0.97,33.8,-14.35)}2.247%{transform:matrix(0.87,-0.18,0.25,0.97,33.77,-14.31)}3.371%{transform:matrix(0.87,-0.18,0.25,0.97,33.74,-14.28)}4.494%{transform:matrix(0.87,-0.18,0.25,0.97,33.71,-14.25)}5.618%{transform:matrix(0.87,-0.18,0.25,0.97,33.67,-14.23)}6.742%{transform:matrix(0.87,-0.18,0.25,0.97,33.62,-14.21)}7.865%{transform:matrix(0.87,-0.19,0.25,0.97,33.57,-14.2)}8.989%{transform:matrix(0.87,-0.19,0.25,0.97,33.52,-14.19)}10.112%{transform:matrix(0.87,-0.19,0.25,0.97,33.46,-14.19)}11.236%{transform:matrix(0.87,-0.19,0.25,0.97,33.4,-14.19)}12.36%{transform:matrix(0.88,-0.19,0.25,0.97,33.34,-14.19)}13.483%{transform:matrix(0.88,-0.19,0.25,0.97,33.27,-14.2)}14.607%{transform:matrix(0.88,-0.19,0.25,0.97,33.21,-14.21)}15.73%{transform:matrix(0.88,-0.19,0.25,0.97,33.14,-14.22)}16.854%{transform:matrix(0.88,-0.19,0.25,0.97,33.07,-14.24)}17.978%{transform:matrix(0.88,-0.19,0.25,0.97,33.01,-14.25)}19.101%{transform:matrix(0.88,-0.19,0.25,0.97,32.94,-14.27)}20.225%{transform:matrix(0.88,-0.19,0.25,0.97,32.88,-14.29)}21.348%{transform:matrix(0.88,-0.19,0.25,0.97,32.83,-14.3)}22.472%{transform:matrix(0.88,-0.19,0.25,0.97,32.77,-14.31)}23.596%{transform:matrix(0.88,-0.19,0.25,0.97,32.72,-14.32)}24.719%{transform:matrix(0.88,-0.19,0.25,0.97,32.67,-14.33)}25.843%{transform:matrix(0.88,-0.19,0.25,0.97,32.63,-14.33)}26.966%{transform:matrix(0.88,-0.19,0.25,0.97,32.59,-14.33)}28.09%{transform:matrix(0.88,-0.19,0.25,0.96,32.55,-14.33)}29.213%{transform:matrix(0.88,-0.19,0.25,0.96,32.51,-14.32)}30.337%{transform:matrix(0.88,-0.19,0.25,0.96,32.47,-14.31)}31.461%{transform:matrix(0.88,-0.19,0.25,0.96,32.44,-14.29)}32.584%{transform:matrix(0.88,-0.19,0.25,0.96,32.4,-14.27)}33.708%{transform:matrix(0.88,-0.19,0.25,0.96,32.36,-14.24)}34.831%{transform:matrix(0.88,-0.19,0.25,0.97,32.32,-14.21)}35.955%{transform:matrix(0.88,-0.19,0.25,0.97,32.28,-14.17)}37.079%{transform:matrix(0.88,-0.19,0.25,0.97,32.23,-14.13)}38.202%{transform:matrix(0.88,-0.19,0.25,0.97,32.17,-14.09)}39.326%{transform:matrix(0.88,-0.19,0.25,0.97,32.12,-14.05)}40.449%{transform:matrix(0.88,-0.19,0.25,0.97,32.05,-14)}41.573%{transform:matrix(0.88,-0.19,0.25,0.97,31.98,-13.96)}42.697%{transform:matrix(0.88,-0.19,0.25,0.97,31.9,-13.91)}43.82%{transform:matrix(0.88,-0.19,0.25,0.97,31.82,-13.86)}44.944%{transform:matrix(0.88,-0.19,0.25,0.97,31.73,-13.82)}46.067%{transform:matrix(0.88,-0.19,0.25,0.97,31.63,-13.77)}47.191%{transform:matrix(0.88,-0.19,0.25,0.97,31.53,-13.72)}48.315%{transform:matrix(0.89,-0.12,0.25,0.59,31.43,-13.68)}49.438%{transform:matrix(0.89,-0.04,0.25,0.22,31.33,-13.64)}50.562%{transform:matrix(0.89,-0.05,0.25,0.23,31.22,-13.6)}51.685%{transform:matrix(0.89,-0.11,0.25,0.54,31.12,-13.56)}52.809%{transform:matrix(0.89,-0.17,0.25,0.84,31.01,-13.52)}53.933%{transform:matrix(0.89,-0.19,0.25,0.97,30.92,-13.48)}55.056%{transform:matrix(0.89,-0.19,0.25,0.97,30.83,-13.45)}56.18%{transform:matrix(0.89,-0.19,0.25,0.97,30.74,-13.41)}57.303%{transform:matrix(0.89,-0.19,0.25,0.97,30.67,-13.38)}58.427%{transform:matrix(0.89,-0.2,0.25,0.97,30.61,-13.34)}59.551%{transform:matrix(0.89,-0.2,0.25,0.97,30.56,-13.31)}60.674%{transform:matrix(0.89,-0.2,0.25,0.97,30.52,-13.27)}61.798%{transform:matrix(0.89,-0.2,0.25,0.97,30.51,-13.23)}62.921%{transform:matrix(0.89,-0.2,0.25,0.97,30.5,-13.19)}64.045%{transform:matrix(0.89,-0.2,0.25,0.97,30.52,-13.15)}65.169%{transform:matrix(0.89,-0.2,0.25,0.97,30.55,-13.1)}66.292%{transform:matrix(0.89,-0.2,0.25,0.97,30.6,-13.04)}67.416%{transform:matrix(0.89,-0.2,0.25,0.97,30.66,-12.98)}68.539%{transform:matrix(0.89,-0.2,0.25,0.97,30.74,-12.92)}69.663%{transform:matrix(0.89,-0.2,0.25,0.97,30.84,-12.85)}70.787%{transform:matrix(0.89,-0.2,0.25,0.97,30.94,-12.77)}71.91%{transform:matrix(0.89,-0.2,0.25,0.97,31.06,-12.69)}73.034%{transform:matrix(0.89,-0.2,0.25,0.97,31.18,-12.59)}74.157%{transform:matrix(0.88,-0.2,0.25,0.97,31.3,-12.49)}75.281%{transform:matrix(0.88,-0.2,0.25,0.97,31.43,-12.38)}76.404%{transform:matrix(0.88,-0.2,0.25,0.97,31.57,-12.27)}77.528%{transform:matrix(0.88,-0.2,0.25,0.97,31.7,-12.15)}78.652%{transform:matrix(0.88,-0.2,0.25,0.97,31.84,-12.03)}79.775%{transform:matrix(0.88,-0.2,0.25,0.97,31.97,-11.91)}80.899%{transform:matrix(0.88,-0.2,0.25,0.97,32.09,-11.78)}82.022%{transform:matrix(0.88,-0.2,0.25,0.97,32.2,-11.65)}83.146%{transform:matrix(0.88,-0.2,0.25,0.97,32.31,-11.52)}84.27%{transform:matrix(0.87,-0.21,0.25,0.97,32.41,-11.39)}85.393%{transform:matrix(0.87,-0.21,0.25,0.97,32.49,-11.27)}86.517%{transform:matrix(0.87,-0.21,0.25,0.97,32.56,-11.15)}87.64%{transform:matrix(0.87,-0.21,0.25,0.97,32.61,-11.03)}88.764%{transform:matrix(0.87,-0.21,0.25,0.97,32.65,-10.92)}89.888%{transform:matrix(0.87,-0.21,0.25,0.97,32.67,-10.82)}91.011%{transform:matrix(0.87,-0.21,0.25,0.97,32.68,-10.72)}92.135%{transform:matrix(0.87,-0.21,0.25,0.97,32.68,-10.64)}93.258%{transform:matrix(0.87,-0.21,0.25,0.97,32.66,-10.57)}94.382%{transform:matrix(0.87,-0.21,0.25,0.97,32.63,-10.51)}95.506%{transform:matrix(0.87,-0.21,0.25,0.97,32.59,-10.47)}96.629%{transform:matrix(0.87,-0.21,0.25,0.97,32.54,-10.44)}97.753%{transform:matrix(0.87,-0.21,0.25,0.97,32.48,-10.42)}98.876%{transform:matrix(0.87,-0.21,0.25,0.97,32.41,-10.42)}100%{transform:matrix(0.87,-0.21,0.25,0.97,32.34,-10.44)}}</style></svg>