<svg width="250" height="250" viewBox="-125 -125 250 250" role="img" aria-label="Animated bloub avatar" xmlns="http://www.w3.org/2000/svg"><defs><mask id="bot-mask-lahyit" maskUnits="userSpaceOnUse" x="-158" y="-158" width="316" height="316"><path d="M91.76 0.33C93.06 3.31 94.09 6.47 94.78 9.65C95.47 12.82 95.86 16.12 95.92 19.37C95.98 22.62 95.71 25.93 95.13 29.13C94.56 32.33 93.65 35.53 92.46 38.55C91.27 41.57 89.75 44.53 87.99 47.26C86.23 49.99 84.17 52.6 81.91 54.93C79.65 57.27 77.12 59.42 74.45 61.27C71.77 63.12 68.87 64.74 65.89 66.03C62.91 67.32 59.74 68.34 56.56 69.02C53.38 69.7 49.48 68.96 46.83 70.13C44.18 71.31 42.86 74.23 40.67 76.06C38.47 77.9 36.12 79.62 33.66 81.14C31.2 82.65 28.59 84.02 25.92 85.17C23.25 86.32 20.46 87.3 17.64 88.05C14.81 88.81 11.9 89.36 8.99 89.69C6.08 90.03 3.11 90.15 0.19 90.05C-2.74 89.95 -5.69 89.63 -8.56 89.11C-11.43 88.59 -14.29 87.84 -17.04 86.91C-19.78 85.98 -22.49 84.84 -25.05 83.53C-27.62 82.22 -30.07 80.66 -32.42 79.06C-34.78 77.46 -36.4 74.8 -39.16 73.94C-41.91 73.07 -45.7 74.19 -48.95 73.87C-52.2 73.55 -55.49 72.92 -58.64 72.01C-61.79 71.1 -64.93 69.87 -67.88 68.39C-70.82 66.91 -73.69 65.12 -76.32 63.12C-78.95 61.11 -81.45 58.82 -83.67 56.36C-85.89 53.9 -87.92 51.18 -89.65 48.35C-91.38 45.51 -92.87 42.47 -94.05 39.36C-95.23 36.26 -96.13 32.99 -96.71 29.72C-97.29 26.46 -97.57 23.08 -97.54 19.77C-97.51 16.46 -97.17 13.09 -96.53 9.85C-95.89 6.61 -94.93 3.38 -93.72 0.33C-92.5 -2.73 -90.97 -5.71 -89.23 -8.48C-87.48 -11.24 -85.45 -13.88 -83.25 -16.27C-81.05 -18.65 -77.97 -20.6 -76.03 -22.79C-74.09 -24.98 -72.47 -26.93 -71.62 -29.41C-70.77 -31.89 -71.4 -34.96 -70.93 -37.68C-70.46 -40.41 -69.74 -43.15 -68.8 -45.77C-67.86 -48.39 -66.67 -50.97 -65.28 -53.4C-63.89 -55.82 -62.25 -58.16 -60.45 -60.31C-58.66 -62.46 -56.63 -64.49 -54.48 -66.29C-52.33 -68.09 -49.98 -69.72 -47.55 -71.12C-45.12 -72.51 -42.52 -73.71 -39.89 -74.65C-37.26 -75.6 -34.5 -76.32 -31.75 -76.78C-29.01 -77.25 -26.18 -77.47 -23.41 -77.46C-20.64 -77.44 -17.83 -77.17 -15.13 -76.68C-12.43 -76.18 -9.74 -75.44 -7.18 -74.5C-4.63 -73.56 -2.14 -72.38 0.19 -71.04C2.51 -69.71 4.63 -67.64 6.77 -66.47C8.9 -65.3 10.71 -64.02 12.98 -64.01C15.26 -64 17.89 -65.83 20.43 -66.41C22.98 -66.98 25.63 -67.34 28.26 -67.45C30.89 -67.56 33.59 -67.43 36.21 -67.06C38.83 -66.69 41.47 -66.07 43.99 -65.23C46.51 -64.39 49.01 -63.3 51.34 -62C53.68 -60.71 55.93 -59.18 58 -57.48C60.06 -55.78 62 -53.86 63.72 -51.81C65.44 -49.76 66.99 -47.52 68.31 -45.19C69.62 -42.86 70.74 -40.37 71.61 -37.85C72.48 -35.32 73.12 -32.68 73.51 -30.04C73.9 -27.41 72.77 -24.44 73.96 -22.05C75.14 -19.65 78.45 -17.98 80.62 -15.67C82.79 -13.37 85.12 -10.89 86.98 -8.22C88.84 -5.55 90.46 -2.65 91.76 0.33Z" fill="#fff"/><path d="M-15 0A6 6 0 0 1 -9 -6L9 -6A6 6 0 0 1 15 0L15 0A6 6 0 0 1 9 6L-9 6A6 6 0 0 1 -15 0Z" class="oeil0" opacity="1" fill="#000"/><path d="M-15 0A6 6 0 0 1 -9 -6L9 -6A6 6 0 0 1 15 0L15 0A6 6 0 0 1 9 6L-9 6A6 6 0 0 1 -15 0Z" class="oeil1" opacity="1" fill="#000"/></mask></defs><g fill="none" stroke-linecap="round"></g><g opacity="1"><path d="M91.76 0.33C93.06 3.31 94.09 6.47 94.78 9.65C95.47 12.82 95.86 16.12 95.92 19.37C95.98 22.62 95.71 25.93 95.13 29.13C94.56 32.33 93.65 35.53 92.46 38.55C91.27 41.57 89.75 44.53 87.99 47.26C86.23 49.99 84.17 52.6 81.91 54.93C79.65 57.27 77.12 59.42 74.45 61.27C71.77 63.12 68.87 64.74 65.89 66.03C62.91 67.32 59.74 68.34 56.56 69.02C53.38 69.7 49.48 68.96 46.83 70.13C44.18 71.31 42.86 74.23 40.67 76.06C38.47 77.9 36.12 79.62 33.66 81.14C31.2 82.65 28.59 84.02 25.92 85.17C23.25 86.32 20.46 87.3 17.64 88.05C14.81 88.81 11.9 89.36 8.99 89.69C6.08 90.03 3.11 90.15 0.19 90.05C-2.74 89.95 -5.69 89.63 -8.56 89.11C-11.43 88.59 -14.29 87.84 -17.04 86.91C-19.78 85.98 -22.49 84.84 -25.05 83.53C-27.62 82.22 -30.07 80.66 -32.42 79.06C-34.78 77.46 -36.4 74.8 -39.16 73.94C-41.91 73.07 -45.7 74.19 -48.95 73.87C-52.2 73.55 -55.49 72.92 -58.64 72.01C-61.79 71.1 -64.93 69.87 -67.88 68.39C-70.82 66.91 -73.69 65.12 -76.32 63.12C-78.95 61.11 -81.45 58.82 -83.67 56.36C-85.89 53.9 -87.92 51.18 -89.65 48.35C-91.38 45.51 -92.87 42.47 -94.05 39.36C-95.23 36.26 -96.13 32.99 -96.71 29.72C-97.29 26.46 -97.57 23.08 -97.54 19.77C-97.51 16.46 -97.17 13.09 -96.53 9.85C-95.89 6.61 -94.93 3.38 -93.72 0.33C-92.5 -2.73 -90.97 -5.71 -89.23 -8.48C-87.48 -11.24 -85.45 -13.88 -83.25 -16.27C-81.05 -18.65 -77.97 -20.6 -76.03 -22.79C-74.09 -24.98 -72.47 -26.93 -71.62 -29.41C-70.77 -31.89 -71.4 -34.96 -70.93 -37.68C-70.46 -40.41 -69.74 -43.15 -68.8 -45.77C-67.86 -48.39 -66.67 -50.97 -65.28 -53.4C-63.89 -55.82 -62.25 -58.16 -60.45 -60.31C-58.66 -62.46 -56.63 -64.49 -54.48 -66.29C-52.33 -68.09 -49.98 -69.72 -47.55 -71.12C-45.12 -72.51 -42.52 -73.71 -39.89 -74.65C-37.26 -75.6 -34.5 -76.32 -31.75 -76.78C-29.01 -77.25 -26.18 -77.47 -23.41 -77.46C-20.64 -77.44 -17.83 -77.17 -15.13 -76.68C-12.43 -76.18 -9.74 -75.44 -7.18 -74.5C-4.63 -73.56 -2.14 -72.38 0.19 -71.04C2.51 -69.71 4.63 -67.64 6.77 -66.47C8.9 -65.3 10.71 -64.02 12.98 -64.01C15.26 -64 17.89 -65.83 20.43 -66.41C22.98 -66.98 25.63 -67.34 28.26 -67.45C30.89 -67.56 33.59 -67.43 36.21 -67.06C38.83 -66.69 41.47 -66.07 43.99 -65.23C46.51 -64.39 49.01 -63.3 51.34 -62C53.68 -60.71 55.93 -59.18 58 -57.48C60.06 -55.78 62 -53.86 63.72 -51.81C65.44 -49.76 66.99 -47.52 68.31 -45.19C69.62 -42.86 70.74 -40.37 71.61 -37.85C72.48 -35.32 73.12 -32.68 73.51 -30.04C73.9 -27.41 72.77 -24.44 73.96 -22.05C75.14 -19.65 78.45 -17.98 80.62 -15.67C82.79 -13.37 85.12 -10.89 86.98 -8.22C88.84 -5.55 90.46 -2.65 91.76 0.33Z" fill="#f9f9f9"/><g mask="url(#bot-mask-lahyit)"><rect x="-158" y="-158" width="316" height="316" fill="#0a0a0c"/></g></g><g></g><g fill="none" stroke-linecap="round"></g><style>.oeil0,.oeil1{transform-box:view-box;transform-origin:0 0;animation-duration:2.967s;animation-iteration-count:infinite;animation-timing-function:linear;animation-direction:alternate}.oeil0{animation-name:oeil0}.oeil1{animation-name:oeil1}@keyframes oeil0{0%{transform:matrix(0.82,-0.02,-0.02,1,-47.39,-4.02)}1.124%{transform:matrix(0.82,-0.02,-0.02,1,-47.44,-3.97)}2.247%{transform:matrix(0.82,-0.02,-0.02,1,-47.49,-3.92)}3.371%{transform:matrix(0.82,-0.02,-0.02,1,-47.55,-3.88)}4.494%{transform:matrix(0.82,-0.02,-0.02,1,-47.61,-3.84)}5.618%{transform:matrix(0.82,-0.02,-0.02,1,-47.67,-3.8)}6.742%{transform:matrix(0.82,-0.02,-0.02,1,-47.74,-3.77)}7.865%{transform:matrix(0.82,-0.02,-0.02,1,-47.81,-3.75)}8.989%{transform:matrix(0.82,-0.02,-0.02,1,-47.89,-3.73)}10.112%{transform:matrix(0.82,-0.02,-0.02,1,-47.97,-3.72)}11.236%{transform:matrix(0.82,-0.02,-0.02,1,-48.05,-3.7)}12.36%{transform:matrix(0.82,-0.02,-0.02,1,-48.13,-3.7)}13.483%{transform:matrix(0.82,-0.02,-0.02,1,-48.21,-3.7)}14.607%{transform:matrix(0.82,-0.02,-0.02,1,-48.29,-3.7)}15.73%{transform:matrix(0.82,-0.02,-0.02,1,-48.37,-3.7)}16.854%{transform:matrix(0.81,-0.02,-0.02,1,-48.45,-3.7)}17.978%{transform:matrix(0.81,-0.02,-0.02,1,-48.53,-3.71)}19.101%{transform:matrix(0.81,-0.02,-0.02,1,-48.6,-3.71)}20.225%{transform:matrix(0.81,-0.02,-0.02,1,-48.67,-3.72)}21.348%{transform:matrix(0.81,-0.02,-0.02,1,-48.74,-3.72)}22.472%{transform:matrix(0.81,-0.02,-0.02,1,-48.8,-3.73)}23.596%{transform:matrix(0.81,-0.02,-0.02,1,-48.86,-3.73)}24.719%{transform:matrix(0.81,-0.02,-0.02,1,-48.92,-3.73)}25.843%{transform:matrix(0.81,-0.02,-0.02,1,-48.97,-3.72)}26.966%{transform:matrix(0.81,-0.02,-0.02,1,-49.02,-3.72)}28.09%{transform:matrix(0.81,-0.02,-0.02,1,-49.08,-3.7)}29.213%{transform:matrix(0.81,-0.02,-0.02,1,-49.13,-3.69)}30.337%{transform:matrix(0.81,-0.02,-0.02,1,-49.18,-3.67)}31.461%{transform:matrix(0.81,-0.02,-0.02,1,-49.23,-3.64)}32.584%{transform:matrix(0.81,-0.02,-0.02,1,-49.28,-3.61)}33.708%{transform:matrix(0.81,-0.02,-0.02,1,-49.34,-3.58)}34.831%{transform:matrix(0.81,-0.02,-0.02,1,-49.4,-3.54)}35.955%{transform:matrix(0.81,-0.02,-0.02,1,-49.47,-3.5)}37.079%{transform:matrix(0.81,-0.02,-0.02,1,-49.55,-3.46)}38.202%{transform:matrix(0.81,-0.02,-0.02,1,-49.63,-3.41)}39.326%{transform:matrix(0.81,-0.02,-0.02,1,-49.72,-3.36)}40.449%{transform:matrix(0.81,-0.02,-0.02,1,-49.81,-3.31)}41.573%{transform:matrix(0.81,-0.02,-0.02,1,-49.92,-3.26)}42.697%{transform:matrix(0.81,-0.02,-0.02,1,-50.03,-3.2)}43.82%{transform:matrix(0.8,-0.02,-0.02,1,-50.15,-3.15)}44.944%{transform:matrix(0.8,-0.02,-0.02,1,-50.27,-3.09)}46.067%{transform:matrix(0.8,-0.02,-0.02,1,-50.4,-3.04)}47.191%{transform:matrix(0.8,-0.02,-0.02,1,-50.53,-2.99)}48.315%{transform:matrix(0.8,-0.01,-0.01,0.61,-50.67,-2.94)}49.438%{transform:matrix(0.8,-0.01,-0.01,0.23,-50.8,-2.89)}50.562%{transform:matrix(0.8,-0.01,-0.01,0.24,-50.94,-2.84)}51.685%{transform:matrix(0.8,-0.01,-0.01,0.56,-51.08,-2.79)}52.809%{transform:matrix(0.8,-0.02,-0.01,0.87,-51.21,-2.74)}53.933%{transform:matrix(0.8,-0.02,-0.01,1,-51.34,-2.7)}55.056%{transform:matrix(0.8,-0.02,-0.01,1,-51.45,-2.66)}56.18%{transform:matrix(0.8,-0.02,-0.01,1,-51.56,-2.62)}57.303%{transform:matrix(0.8,-0.02,-0.01,1,-51.66,-2.58)}58.427%{transform:matrix(0.8,-0.02,-0.01,1,-51.75,-2.53)}59.551%{transform:matrix(0.8,-0.02,-0.01,1,-51.82,-2.49)}60.674%{transform:matrix(0.79,-0.02,-0.01,1,-51.88,-2.45)}61.798%{transform:matrix(0.79,-0.02,-0.01,1,-51.91,-2.41)}62.921%{transform:matrix(0.79,-0.02,-0.01,1,-51.94,-2.36)}64.045%{transform:matrix(0.79,-0.02,-0.01,1,-51.94,-2.31)}65.169%{transform:matrix(0.8,-0.02,-0.01,1,-51.93,-2.25)}66.292%{transform:matrix(0.8,-0.02,-0.01,1,-51.9,-2.2)}67.416%{transform:matrix(0.8,-0.02,-0.01,1,-51.85,-2.13)}68.539%{transform:matrix(0.8,-0.02,-0.01,1,-51.78,-2.06)}69.663%{transform:matrix(0.8,-0.02,-0.01,1,-51.7,-1.99)}70.787%{transform:matrix(0.8,-0.02,-0.01,1,-51.61,-1.9)}71.91%{transform:matrix(0.8,-0.02,-0.01,1,-51.5,-1.81)}73.034%{transform:matrix(0.8,-0.02,-0.01,1,-51.39,-1.72)}74.157%{transform:matrix(0.8,-0.02,-0.01,1,-51.27,-1.61)}75.281%{transform:matrix(0.8,-0.02,-0.01,1,-51.14,-1.5)}76.404%{transform:matrix(0.81,-0.02,-0.01,1,-51.01,-1.39)}77.528%{transform:matrix(0.81,-0.02,0,1,-50.88,-1.26)}78.652%{transform:matrix(0.81,-0.02,0,1,-50.76,-1.13)}79.775%{transform:matrix(0.81,-0.02,0,1,-50.63,-1)}80.899%{transform:matrix(0.81,-0.02,0,1,-50.52,-0.86)}82.022%{transform:matrix(0.81,-0.02,0,1,-50.41,-0.72)}83.146%{transform:matrix(0.81,-0.02,0,1,-50.32,-0.58)}84.27%{transform:matrix(0.82,-0.02,0,1,-50.24,-0.44)}85.393%{transform:matrix(0.82,-0.02,0,1,-50.17,-0.3)}86.517%{transform:matrix(0.82,-0.02,0,1,-50.12,-0.16)}87.64%{transform:matrix(0.82,-0.02,0,1,-50.09,-0.03)}88.764%{transform:matrix(0.82,-0.02,0,1,-50.07,0.1)}89.888%{transform:matrix(0.82,-0.02,0,1,-50.06,0.23)}91.011%{transform:matrix(0.82,-0.02,0,1,-50.08,0.34)}92.135%{transform:matrix(0.82,-0.02,0,1,-50.11,0.44)}93.258%{transform:matrix(0.82,-0.02,0.01,1,-50.15,0.54)}94.382%{transform:matrix(0.82,-0.02,0.01,1,-50.2,0.61)}95.506%{transform:matrix(0.82,-0.02,0.01,1,-50.27,0.68)}96.629%{transform:matrix(0.82,-0.02,0.01,1,-50.35,0.73)}97.753%{transform:matrix(0.82,-0.02,0.01,1,-50.43,0.77)}98.876%{transform:matrix(0.82,-0.02,0.01,1,-50.52,0.79)}100%{transform:matrix(0.82,-0.02,0.01,1,-50.62,0.79)}}@keyframes oeil1{0%{transform:matrix(1,0.02,-0.02,1,-0.96,-3.83)}1.124%{transform:matrix(1,0.02,-0.02,1,-0.98,-3.79)}2.247%{transform:matrix(1,0.02,-0.02,1,-1,-3.76)}3.371%{transform:matrix(1,0.02,-0.02,1,-1.04,-3.73)}4.494%{transform:matrix(1,0.02,-0.02,1,-1.08,-3.7)}5.618%{transform:matrix(1,0.02,-0.02,1,-1.13,-3.67)}6.742%{transform:matrix(1,0.02,-0.02,1,-1.18,-3.65)}7.865%{transform:matrix(1,0.02,-0.02,1,-1.24,-3.64)}8.989%{transform:matrix(1,0.02,-0.02,1,-1.31,-3.63)}10.112%{transform:matrix(1,0.02,-0.02,1,-1.39,-3.63)}11.236%{transform:matrix(1,0.02,-0.02,1,-1.47,-3.62)}12.36%{transform:matrix(1,0.02,-0.02,1,-1.55,-3.62)}13.483%{transform:matrix(1,0.02,-0.02,1,-1.63,-3.63)}14.607%{transform:matrix(1,0.02,-0.02,1,-1.71,-3.63)}15.73%{transform:matrix(1,0.02,-0.02,1,-1.8,-3.64)}16.854%{transform:matrix(1,0.02,-0.02,1,-1.88,-3.65)}17.978%{transform:matrix(1,0.02,-0.02,1,-1.97,-3.66)}19.101%{transform:matrix(1,0.02,-0.02,1,-2.05,-3.67)}20.225%{transform:matrix(1,0.02,-0.02,1,-2.13,-3.69)}21.348%{transform:matrix(1,0.01,-0.02,1,-2.2,-3.7)}22.472%{transform:matrix(1,0.01,-0.02,1,-2.27,-3.71)}23.596%{transform:matrix(1,0.01,-0.02,1,-2.33,-3.71)}24.719%{transform:matrix(1,0.01,-0.02,1,-2.39,-3.72)}25.843%{transform:matrix(1,0.01,-0.02,1,-2.45,-3.72)}26.966%{transform:matrix(1,0.01,-0.02,1,-2.5,-3.71)}28.09%{transform:matrix(1,0.01,-0.02,1,-2.55,-3.71)}29.213%{transform:matrix(1,0.01,-0.02,1,-2.59,-3.69)}30.337%{transform:matrix(1,0.01,-0.02,1,-2.63,-3.67)}31.461%{transform:matrix(1,0.01,-0.02,1,-2.67,-3.65)}32.584%{transform:matrix(1,0.01,-0.02,1,-2.71,-3.62)}33.708%{transform:matrix(1,0.01,-0.02,1,-2.75,-3.59)}34.831%{transform:matrix(1,0.01,-0.02,1,-2.79,-3.55)}35.955%{transform:matrix(1,0.01,-0.02,1,-2.83,-3.51)}37.079%{transform:matrix(1,0.01,-0.02,1,-2.88,-3.46)}38.202%{transform:matrix(1,0.01,-0.02,1,-2.94,-3.42)}39.326%{transform:matrix(1,0.01,-0.02,1,-3,-3.36)}40.449%{transform:matrix(1,0.01,-0.02,1,-3.06,-3.31)}41.573%{transform:matrix(1,0.01,-0.02,1,-3.14,-3.25)}42.697%{transform:matrix(1,0.01,-0.02,1,-3.22,-3.19)}43.82%{transform:matrix(1,0.01,-0.02,1,-3.3,-3.13)}44.944%{transform:matrix(1,0.01,-0.02,1,-3.39,-3.07)}46.067%{transform:matrix(1,0.01,-0.02,1,-3.48,-3.01)}47.191%{transform:matrix(1,0.01,-0.02,1,-3.58,-2.94)}48.315%{transform:matrix(1,0.01,-0.01,0.61,-3.68,-2.88)}49.438%{transform:matrix(1,0,-0.01,0.23,-3.78,-2.82)}50.562%{transform:matrix(1,0,-0.01,0.24,-3.88,-2.77)}51.685%{transform:matrix(1,0.01,-0.01,0.56,-3.98,-2.71)}52.809%{transform:matrix(1,0.01,-0.01,0.87,-4.08,-2.65)}53.933%{transform:matrix(1,0.01,-0.01,1,-4.16,-2.6)}55.056%{transform:matrix(1,0.01,-0.01,1,-4.25,-2.55)}56.18%{transform:matrix(1,0.01,-0.01,1,-4.32,-2.5)}57.303%{transform:matrix(1,0.01,-0.01,1,-4.38,-2.45)}58.427%{transform:matrix(1,0.01,-0.01,1,-4.43,-2.41)}59.551%{transform:matrix(1,0.01,-0.01,1,-4.46,-2.36)}60.674%{transform:matrix(1,0.01,-0.01,1,-4.48,-2.32)}61.798%{transform:matrix(1,0.01,-0.01,1,-4.49,-2.28)}62.921%{transform:matrix(1,0.01,-0.01,1,-4.47,-2.23)}64.045%{transform:matrix(1,0.01,-0.01,1,-4.44,-2.18)}65.169%{transform:matrix(1,0.01,-0.01,1,-4.39,-2.13)}66.292%{transform:matrix(1,0.01,-0.01,1,-4.31,-2.08)}67.416%{transform:matrix(1,0.01,-0.01,1,-4.22,-2.03)}68.539%{transform:matrix(1,0.01,-0.01,1,-4.11,-1.97)}69.663%{transform:matrix(1,0.01,-0.01,1,-3.99,-1.9)}70.787%{transform:matrix(1,0,-0.01,1,-3.85,-1.83)}71.91%{transform:matrix(1,0,-0.01,1,-3.69,-1.76)}73.034%{transform:matrix(1,0,-0.01,1,-3.52,-1.67)}74.157%{transform:matrix(1,0,-0.01,1,-3.34,-1.59)}75.281%{transform:matrix(1,0,-0.01,1,-3.15,-1.49)}76.404%{transform:matrix(1,0,-0.01,1,-2.96,-1.39)}77.528%{transform:matrix(1,0,0,1,-2.76,-1.29)}78.652%{transform:matrix(1,0,0,1,-2.56,-1.18)}79.775%{transform:matrix(1,0,0,1,-2.36,-1.07)}80.899%{transform:matrix(1,0,0,1,-2.17,-0.95)}82.022%{transform:matrix(1,0,0,1,-1.99,-0.83)}83.146%{transform:matrix(1,0,0,1,-1.82,-0.71)}84.27%{transform:matrix(1,0,0,1,-1.65,-0.58)}85.393%{transform:matrix(1,0,0,1,-1.5,-0.46)}86.517%{transform:matrix(1,0,0,1,-1.37,-0.34)}87.64%{transform:matrix(1,0,0,1,-1.25,-0.22)}88.764%{transform:matrix(1,0,0,1,-1.15,-0.11)}89.888%{transform:matrix(1,0,0,1,-1.07,0)}91.011%{transform:matrix(1,-0.01,0,1,-1.01,0.09)}92.135%{transform:matrix(1,-0.01,0,1,-0.96,0.18)}93.258%{transform:matrix(1,-0.01,0.01,1,-0.95,0.25)}94.382%{transform:matrix(1,-0.01,0.01,1,-0.98,0.3)}95.506%{transform:matrix(1,-0.01,0.01,1,-1.03,0.33)}96.629%{transform:matrix(1,-0.01,0.01,1,-1.09,0.36)}97.753%{transform:matrix(1,-0.01,0.01,1,-1.17,0.37)}98.876%{transform:matrix(1,-0.01,0.01,1,-1.25,0.37)}100%{transform:matrix(1,-0.01,0.01,1,-1.35,0.35)}}</style></svg>