<svg width="250" height="250" viewBox="-125 -125 250 250" role="img" aria-label="Animated bloub avatar" xmlns="http://www.w3.org/2000/svg"><defs><mask id="bot-mask-tfm3bs" maskUnits="userSpaceOnUse" x="-158" y="-158" width="316" height="316"><path d="M91.76 0.33C93.06 3.31 94.09 6.47 94.78 9.65C95.47 12.82 95.86 16.12 95.92 19.37C95.98 22.62 95.71 25.93 95.13 29.13C94.56 32.33 93.65 35.53 92.46 38.55C91.27 41.57 89.75 44.53 87.99 47.26C86.23 49.99 84.17 52.6 81.91 54.93C79.65 57.27 77.12 59.42 74.45 61.27C71.77 63.12 68.87 64.74 65.89 66.03C62.91 67.32 59.74 68.34 56.56 69.02C53.38 69.7 49.48 68.96 46.83 70.13C44.18 71.31 42.86 74.23 40.67 76.06C38.47 77.9 36.12 79.62 33.66 81.14C31.2 82.65 28.59 84.02 25.92 85.17C23.25 86.32 20.46 87.3 17.64 88.05C14.81 88.81 11.9 89.36 8.99 89.69C6.08 90.03 3.11 90.15 0.19 90.05C-2.74 89.95 -5.69 89.63 -8.56 89.11C-11.43 88.59 -14.29 87.84 -17.04 86.91C-19.78 85.98 -22.49 84.84 -25.05 83.53C-27.62 82.22 -30.07 80.66 -32.42 79.06C-34.78 77.46 -36.4 74.8 -39.16 73.94C-41.91 73.07 -45.7 74.19 -48.95 73.87C-52.2 73.55 -55.49 72.92 -58.64 72.01C-61.79 71.1 -64.93 69.87 -67.88 68.39C-70.82 66.91 -73.69 65.12 -76.32 63.12C-78.95 61.11 -81.45 58.82 -83.67 56.36C-85.89 53.9 -87.92 51.18 -89.65 48.35C-91.38 45.51 -92.87 42.47 -94.05 39.36C-95.23 36.26 -96.13 32.99 -96.71 29.72C-97.29 26.46 -97.57 23.08 -97.54 19.77C-97.51 16.46 -97.17 13.09 -96.53 9.85C-95.89 6.61 -94.93 3.38 -93.72 0.33C-92.5 -2.73 -90.97 -5.71 -89.23 -8.48C-87.48 -11.24 -85.45 -13.88 -83.25 -16.27C-81.05 -18.65 -77.97 -20.6 -76.03 -22.79C-74.09 -24.98 -72.47 -26.93 -71.62 -29.41C-70.77 -31.89 -71.4 -34.96 -70.93 -37.68C-70.46 -40.41 -69.74 -43.15 -68.8 -45.77C-67.86 -48.39 -66.67 -50.97 -65.28 -53.4C-63.89 -55.82 -62.25 -58.16 -60.45 -60.31C-58.66 -62.46 -56.63 -64.49 -54.48 -66.29C-52.33 -68.09 -49.98 -69.72 -47.55 -71.12C-45.12 -72.51 -42.52 -73.71 -39.89 -74.65C-37.26 -75.6 -34.5 -76.32 -31.75 -76.78C-29.01 -77.25 -26.18 -77.47 -23.41 -77.46C-20.64 -77.44 -17.83 -77.17 -15.13 -76.68C-12.43 -76.18 -9.74 -75.44 -7.18 -74.5C-4.63 -73.56 -2.14 -72.38 0.19 -71.04C2.51 -69.71 4.63 -67.64 6.77 -66.47C8.9 -65.3 10.71 -64.02 12.98 -64.01C15.26 -64 17.89 -65.83 20.43 -66.41C22.98 -66.98 25.63 -67.34 28.26 -67.45C30.89 -67.56 33.59 -67.43 36.21 -67.06C38.83 -66.69 41.47 -66.07 43.99 -65.23C46.51 -64.39 49.01 -63.3 51.34 -62C53.68 -60.71 55.93 -59.18 58 -57.48C60.06 -55.78 62 -53.86 63.72 -51.81C65.44 -49.76 66.99 -47.52 68.31 -45.19C69.62 -42.86 70.74 -40.37 71.61 -37.85C72.48 -35.32 73.12 -32.68 73.51 -30.04C73.9 -27.41 72.77 -24.44 73.96 -22.05C75.14 -19.65 78.45 -17.98 80.62 -15.67C82.79 -13.37 85.12 -10.89 86.98 -8.22C88.84 -5.55 90.46 -2.65 91.76 0.33Z" fill="#fff"/><path d="M-10 -11A10 10 0 0 1 0 -21L0 -21A10 10 0 0 1 10 -11L10 11A10 10 0 0 1 0 21L0 21A10 10 0 0 1 -10 11Z" class="oeil0" opacity="1" fill="#000"/><path d="M-10 -11A10 10 0 0 1 0 -21L0 -21A10 10 0 0 1 10 -11L10 11A10 10 0 0 1 0 21L0 21A10 10 0 0 1 -10 11Z" class="oeil1" opacity="1" fill="#000"/></mask></defs><g fill="none" stroke-linecap="round"></g><g opacity="1"><path d="M91.76 0.33C93.06 3.31 94.09 6.47 94.78 9.65C95.47 12.82 95.86 16.12 95.92 19.37C95.98 22.62 95.71 25.93 95.13 29.13C94.56 32.33 93.65 35.53 92.46 38.55C91.27 41.57 89.75 44.53 87.99 47.26C86.23 49.99 84.17 52.6 81.91 54.93C79.65 57.27 77.12 59.42 74.45 61.27C71.77 63.12 68.87 64.74 65.89 66.03C62.91 67.32 59.74 68.34 56.56 69.02C53.38 69.7 49.48 68.96 46.83 70.13C44.18 71.31 42.86 74.23 40.67 76.06C38.47 77.9 36.12 79.62 33.66 81.14C31.2 82.65 28.59 84.02 25.92 85.17C23.25 86.32 20.46 87.3 17.64 88.05C14.81 88.81 11.9 89.36 8.99 89.69C6.08 90.03 3.11 90.15 0.19 90.05C-2.74 89.95 -5.69 89.63 -8.56 89.11C-11.43 88.59 -14.29 87.84 -17.04 86.91C-19.78 85.98 -22.49 84.84 -25.05 83.53C-27.62 82.22 -30.07 80.66 -32.42 79.06C-34.78 77.46 -36.4 74.8 -39.16 73.94C-41.91 73.07 -45.7 74.19 -48.95 73.87C-52.2 73.55 -55.49 72.92 -58.64 72.01C-61.79 71.1 -64.93 69.87 -67.88 68.39C-70.82 66.91 -73.69 65.12 -76.32 63.12C-78.95 61.11 -81.45 58.82 -83.67 56.36C-85.89 53.9 -87.92 51.18 -89.65 48.35C-91.38 45.51 -92.87 42.47 -94.05 39.36C-95.23 36.26 -96.13 32.99 -96.71 29.72C-97.29 26.46 -97.57 23.08 -97.54 19.77C-97.51 16.46 -97.17 13.09 -96.53 9.85C-95.89 6.61 -94.93 3.38 -93.72 0.33C-92.5 -2.73 -90.97 -5.71 -89.23 -8.48C-87.48 -11.24 -85.45 -13.88 -83.25 -16.27C-81.05 -18.65 -77.97 -20.6 -76.03 -22.79C-74.09 -24.98 -72.47 -26.93 -71.62 -29.41C-70.77 -31.89 -71.4 -34.96 -70.93 -37.68C-70.46 -40.41 -69.74 -43.15 -68.8 -45.77C-67.86 -48.39 -66.67 -50.97 -65.28 -53.4C-63.89 -55.82 -62.25 -58.16 -60.45 -60.31C-58.66 -62.46 -56.63 -64.49 -54.48 -66.29C-52.33 -68.09 -49.98 -69.72 -47.55 -71.12C-45.12 -72.51 -42.52 -73.71 -39.89 -74.65C-37.26 -75.6 -34.5 -76.32 -31.75 -76.78C-29.01 -77.25 -26.18 -77.47 -23.41 -77.46C-20.64 -77.44 -17.83 -77.17 -15.13 -76.68C-12.43 -76.18 -9.74 -75.44 -7.18 -74.5C-4.63 -73.56 -2.14 -72.38 0.19 -71.04C2.51 -69.71 4.63 -67.64 6.77 -66.47C8.9 -65.3 10.71 -64.02 12.98 -64.01C15.26 -64 17.89 -65.83 20.43 -66.41C22.98 -66.98 25.63 -67.34 28.26 -67.45C30.89 -67.56 33.59 -67.43 36.21 -67.06C38.83 -66.69 41.47 -66.07 43.99 -65.23C46.51 -64.39 49.01 -63.3 51.34 -62C53.68 -60.71 55.93 -59.18 58 -57.48C60.06 -55.78 62 -53.86 63.72 -51.81C65.44 -49.76 66.99 -47.52 68.31 -45.19C69.62 -42.86 70.74 -40.37 71.61 -37.85C72.48 -35.32 73.12 -32.68 73.51 -30.04C73.9 -27.41 72.77 -24.44 73.96 -22.05C75.14 -19.65 78.45 -17.98 80.62 -15.67C82.79 -13.37 85.12 -10.89 86.98 -8.22C88.84 -5.55 90.46 -2.65 91.76 0.33Z" fill="#f9f9f9"/><g mask="url(#bot-mask-tfm3bs)"><rect x="-158" y="-158" width="316" height="316" fill="#0a0a0c"/></g></g><g></g><g fill="none" stroke-linecap="round"></g><style>.oeil0,.oeil1{transform-box:view-box;transform-origin:0 0;animation-duration:2.967s;animation-iteration-count:infinite;animation-timing-function:linear;animation-direction:alternate}.oeil0{animation-name:oeil0}.oeil1{animation-name:oeil1}@keyframes oeil0{0%{transform:matrix(0.99,-0.01,0.03,0.45,-11.29,12.62)}1.124%{transform:matrix(0.99,-0.01,0.03,0.45,-11.3,12.67)}2.247%{transform:matrix(0.99,-0.01,0.03,0.45,-11.33,12.72)}3.371%{transform:matrix(0.99,-0.01,0.03,0.45,-11.36,12.77)}4.494%{transform:matrix(0.99,-0.01,0.03,0.45,-11.4,12.81)}5.618%{transform:matrix(0.99,-0.01,0.03,0.45,-11.46,12.85)}6.742%{transform:matrix(0.99,-0.01,0.03,0.45,-11.52,12.89)}7.865%{transform:matrix(0.99,-0.01,0.03,0.45,-11.59,12.93)}8.989%{transform:matrix(0.99,-0.01,0.03,0.45,-11.68,12.96)}10.112%{transform:matrix(0.99,-0.01,0.03,0.45,-11.77,12.99)}11.236%{transform:matrix(0.99,-0.01,0.04,0.45,-11.86,13.02)}12.36%{transform:matrix(0.99,-0.01,0.04,0.45,-11.97,13.04)}13.483%{transform:matrix(0.99,-0.01,0.04,0.45,-12.08,13.06)}14.607%{transform:matrix(0.99,-0.01,0.04,0.45,-12.19,13.08)}15.73%{transform:matrix(0.99,-0.01,0.04,0.45,-12.3,13.09)}16.854%{transform:matrix(0.99,-0.01,0.04,0.45,-12.41,13.11)}17.978%{transform:matrix(0.99,-0.01,0.04,0.45,-12.52,13.12)}19.101%{transform:matrix(0.99,-0.01,0.04,0.45,-12.63,13.13)}20.225%{transform:matrix(0.99,-0.01,0.04,0.45,-12.73,13.14)}21.348%{transform:matrix(0.99,-0.01,0.04,0.45,-12.83,13.15)}22.472%{transform:matrix(0.99,-0.01,0.04,0.45,-12.92,13.16)}23.596%{transform:matrix(0.99,-0.01,0.04,0.45,-13,13.16)}24.719%{transform:matrix(0.99,-0.01,0.04,0.45,-13.08,13.18)}25.843%{transform:matrix(0.99,-0.01,0.04,0.45,-13.15,13.19)}26.966%{transform:matrix(0.99,-0.01,0.04,0.45,-13.21,13.2)}28.09%{transform:matrix(0.99,-0.01,0.04,0.45,-13.27,13.22)}29.213%{transform:matrix(0.99,-0.01,0.04,0.45,-13.32,13.24)}30.337%{transform:matrix(0.99,-0.01,0.04,0.45,-13.37,13.27)}31.461%{transform:matrix(0.99,-0.01,0.04,0.45,-13.42,13.3)}32.584%{transform:matrix(0.99,-0.01,0.04,0.45,-13.47,13.34)}33.708%{transform:matrix(0.99,-0.01,0.04,0.45,-13.52,13.37)}34.831%{transform:matrix(0.99,-0.01,0.04,0.45,-13.57,13.42)}35.955%{transform:matrix(0.99,-0.01,0.04,0.45,-13.62,13.46)}37.079%{transform:matrix(0.99,-0.01,0.04,0.45,-13.68,13.51)}38.202%{transform:matrix(0.99,-0.01,0.04,0.45,-13.75,13.57)}39.326%{transform:matrix(0.99,-0.01,0.04,0.45,-13.83,13.63)}40.449%{transform:matrix(0.99,-0.01,0.04,0.45,-13.91,13.69)}41.573%{transform:matrix(0.99,-0.01,0.04,0.45,-14.01,13.75)}42.697%{transform:matrix(0.99,-0.01,0.04,0.45,-14.11,13.82)}43.82%{transform:matrix(0.99,-0.01,0.04,0.45,-14.22,13.88)}44.944%{transform:matrix(0.99,-0.01,0.04,0.45,-14.35,13.95)}46.067%{transform:matrix(0.99,-0.01,0.04,0.45,-14.48,14.02)}47.191%{transform:matrix(0.99,-0.01,0.04,0.45,-14.62,14.08)}48.315%{transform:matrix(0.99,-0.01,0.04,0.45,-14.76,14.15)}49.438%{transform:matrix(0.99,0,0.04,0.22,-14.91,14.22)}50.562%{transform:matrix(0.99,0,0.04,0.24,-15.06,14.28)}51.685%{transform:matrix(0.99,-0.01,0.04,0.45,-15.2,14.34)}52.809%{transform:matrix(0.99,-0.01,0.04,0.45,-15.35,14.4)}53.933%{transform:matrix(0.99,-0.01,0.04,0.45,-15.48,14.46)}55.056%{transform:matrix(0.99,-0.01,0.04,0.45,-15.61,14.52)}56.18%{transform:matrix(0.99,-0.01,0.04,0.45,-15.73,14.57)}57.303%{transform:matrix(0.99,-0.01,0.04,0.45,-15.83,14.62)}58.427%{transform:matrix(0.99,-0.01,0.04,0.45,-15.91,14.67)}59.551%{transform:matrix(0.99,-0.01,0.04,0.45,-15.96,14.72)}60.674%{transform:matrix(0.99,-0.01,0.04,0.45,-16,14.76)}61.798%{transform:matrix(0.99,-0.01,0.04,0.45,-16.01,14.81)}62.921%{transform:matrix(0.99,-0.01,0.04,0.45,-15.99,14.85)}64.045%{transform:matrix(0.99,-0.01,0.04,0.45,-15.95,14.89)}65.169%{transform:matrix(0.99,-0.01,0.04,0.45,-15.87,14.93)}66.292%{transform:matrix(0.99,-0.01,0.04,0.45,-15.77,14.98)}67.416%{transform:matrix(0.99,-0.01,0.04,0.45,-15.64,15.02)}68.539%{transform:matrix(0.99,-0.01,0.04,0.45,-15.49,15.07)}69.663%{transform:matrix(0.99,-0.01,0.04,0.45,-15.3,15.12)}70.787%{transform:matrix(0.99,-0.01,0.04,0.45,-15.1,15.17)}71.91%{transform:matrix(0.99,-0.01,0.04,0.45,-14.86,15.21)}73.034%{transform:matrix(0.99,-0.01,0.04,0.45,-14.6,15.26)}74.157%{transform:matrix(0.99,-0.01,0.04,0.45,-14.33,15.31)}75.281%{transform:matrix(0.99,-0.01,0.04,0.45,-14.05,15.36)}76.404%{transform:matrix(0.99,-0.01,0.04,0.45,-13.76,15.41)}77.528%{transform:matrix(0.99,-0.01,0.04,0.45,-13.47,15.46)}78.652%{transform:matrix(0.99,-0.01,0.04,0.45,-13.19,15.52)}79.775%{transform:matrix(0.99,-0.01,0.04,0.45,-12.9,15.58)}80.899%{transform:matrix(0.99,-0.01,0.04,0.45,-12.62,15.64)}82.022%{transform:matrix(0.99,-0.01,0.04,0.45,-12.35,15.69)}83.146%{transform:matrix(0.99,-0.01,0.04,0.45,-12.1,15.74)}84.27%{transform:matrix(0.99,-0.01,0.04,0.45,-11.87,15.8)}85.393%{transform:matrix(0.99,-0.01,0.04,0.45,-11.66,15.86)}86.517%{transform:matrix(0.99,-0.01,0.04,0.45,-11.47,15.92)}87.64%{transform:matrix(0.99,-0.01,0.04,0.45,-11.32,15.99)}88.764%{transform:matrix(0.99,-0.01,0.04,0.45,-11.19,16.05)}89.888%{transform:matrix(0.99,-0.01,0.04,0.45,-11.09,16.12)}91.011%{transform:matrix(0.99,-0.01,0.04,0.45,-11.02,16.18)}92.135%{transform:matrix(0.99,-0.01,0.04,0.45,-10.97,16.25)}93.258%{transform:matrix(0.99,-0.01,0.04,0.45,-10.96,16.31)}94.382%{transform:matrix(0.99,-0.01,0.04,0.45,-10.96,16.37)}95.506%{transform:matrix(0.99,-0.01,0.04,0.45,-11,16.42)}96.629%{transform:matrix(0.99,-0.01,0.04,0.45,-11.05,16.47)}97.753%{transform:matrix(0.99,-0.01,0.04,0.45,-11.13,16.52)}98.876%{transform:matrix(0.99,-0.01,0.04,0.45,-11.23,16.55)}100%{transform:matrix(0.99,-0.01,0.04,0.45,-11.34,16.58)}}@keyframes oeil1{0%{transform:matrix(0.91,-0.04,0.03,0.45,41.76,10.21)}1.124%{transform:matrix(0.91,-0.04,0.03,0.45,41.75,10.26)}2.247%{transform:matrix(0.91,-0.04,0.03,0.45,41.73,10.31)}3.371%{transform:matrix(0.91,-0.04,0.03,0.45,41.71,10.35)}4.494%{transform:matrix(0.91,-0.04,0.03,0.45,41.67,10.38)}5.618%{transform:matrix(0.91,-0.04,0.03,0.45,41.63,10.41)}6.742%{transform:matrix(0.91,-0.04,0.03,0.45,41.58,10.44)}7.865%{transform:matrix(0.91,-0.04,0.03,0.45,41.52,10.46)}8.989%{transform:matrix(0.91,-0.04,0.03,0.45,41.46,10.47)}10.112%{transform:matrix(0.91,-0.04,0.03,0.45,41.39,10.48)}11.236%{transform:matrix(0.91,-0.04,0.04,0.45,41.31,10.49)}12.36%{transform:matrix(0.91,-0.04,0.04,0.45,41.23,10.48)}13.483%{transform:matrix(0.91,-0.04,0.04,0.45,41.14,10.48)}14.607%{transform:matrix(0.91,-0.04,0.04,0.45,41.06,10.47)}15.73%{transform:matrix(0.91,-0.04,0.04,0.45,40.97,10.46)}16.854%{transform:matrix(0.91,-0.04,0.04,0.45,40.88,10.45)}17.978%{transform:matrix(0.91,-0.04,0.04,0.45,40.79,10.43)}19.101%{transform:matrix(0.91,-0.04,0.04,0.45,40.71,10.42)}20.225%{transform:matrix(0.91,-0.04,0.04,0.45,40.63,10.4)}21.348%{transform:matrix(0.91,-0.04,0.04,0.45,40.55,10.39)}22.472%{transform:matrix(0.91,-0.04,0.04,0.45,40.48,10.38)}23.596%{transform:matrix(0.91,-0.04,0.04,0.45,40.41,10.37)}24.719%{transform:matrix(0.91,-0.04,0.04,0.45,40.34,10.36)}25.843%{transform:matrix(0.91,-0.04,0.04,0.45,40.29,10.36)}26.966%{transform:matrix(0.91,-0.04,0.04,0.45,40.23,10.36)}28.09%{transform:matrix(0.91,-0.04,0.04,0.45,40.19,10.37)}29.213%{transform:matrix(0.91,-0.04,0.04,0.45,40.14,10.38)}30.337%{transform:matrix(0.91,-0.04,0.04,0.45,40.1,10.4)}31.461%{transform:matrix(0.91,-0.04,0.04,0.45,40.06,10.43)}32.584%{transform:matrix(0.91,-0.04,0.04,0.45,40.02,10.46)}33.708%{transform:matrix(0.91,-0.04,0.04,0.45,39.98,10.49)}34.831%{transform:matrix(0.91,-0.04,0.04,0.45,39.94,10.53)}35.955%{transform:matrix(0.91,-0.04,0.04,0.45,39.9,10.57)}37.079%{transform:matrix(0.91,-0.04,0.04,0.45,39.85,10.62)}38.202%{transform:matrix(0.91,-0.04,0.04,0.45,39.8,10.67)}39.326%{transform:matrix(0.91,-0.04,0.04,0.45,39.74,10.73)}40.449%{transform:matrix(0.91,-0.04,0.04,0.45,39.67,10.79)}41.573%{transform:matrix(0.92,-0.04,0.04,0.45,39.6,10.85)}42.697%{transform:matrix(0.92,-0.04,0.04,0.45,39.51,10.91)}43.82%{transform:matrix(0.92,-0.04,0.04,0.45,39.43,10.97)}44.944%{transform:matrix(0.92,-0.04,0.04,0.45,39.33,11.04)}46.067%{transform:matrix(0.92,-0.04,0.04,0.45,39.23,11.1)}47.191%{transform:matrix(0.92,-0.04,0.04,0.45,39.12,11.16)}48.315%{transform:matrix(0.92,-0.04,0.04,0.45,39,11.22)}49.438%{transform:matrix(0.92,-0.02,0.04,0.22,38.89,11.28)}50.562%{transform:matrix(0.92,-0.02,0.04,0.24,38.77,11.34)}51.685%{transform:matrix(0.92,-0.04,0.04,0.45,38.65,11.39)}52.809%{transform:matrix(0.92,-0.04,0.04,0.45,38.54,11.45)}53.933%{transform:matrix(0.92,-0.04,0.04,0.45,38.43,11.5)}55.056%{transform:matrix(0.92,-0.04,0.04,0.45,38.33,11.55)}56.18%{transform:matrix(0.92,-0.04,0.04,0.45,38.24,11.6)}57.303%{transform:matrix(0.92,-0.04,0.04,0.45,38.16,11.65)}58.427%{transform:matrix(0.92,-0.04,0.04,0.45,38.1,11.69)}59.551%{transform:matrix(0.92,-0.04,0.04,0.45,38.05,11.74)}60.674%{transform:matrix(0.92,-0.04,0.04,0.45,38.01,11.79)}61.798%{transform:matrix(0.92,-0.04,0.04,0.45,38,11.84)}62.921%{transform:matrix(0.92,-0.04,0.04,0.45,38.01,11.89)}64.045%{transform:matrix(0.92,-0.04,0.04,0.45,38.04,11.94)}65.169%{transform:matrix(0.92,-0.04,0.04,0.45,38.1,12)}66.292%{transform:matrix(0.92,-0.04,0.04,0.45,38.18,12.06)}67.416%{transform:matrix(0.92,-0.04,0.04,0.45,38.28,12.13)}68.539%{transform:matrix(0.92,-0.04,0.04,0.45,38.4,12.21)}69.663%{transform:matrix(0.92,-0.04,0.04,0.45,38.55,12.29)}70.787%{transform:matrix(0.92,-0.04,0.04,0.45,38.71,12.37)}71.91%{transform:matrix(0.92,-0.04,0.04,0.45,38.89,12.47)}73.034%{transform:matrix(0.92,-0.04,0.04,0.45,39.09,12.57)}74.157%{transform:matrix(0.92,-0.04,0.04,0.45,39.3,12.68)}75.281%{transform:matrix(0.92,-0.05,0.04,0.45,39.51,12.8)}76.404%{transform:matrix(0.92,-0.05,0.04,0.45,39.74,12.92)}77.528%{transform:matrix(0.91,-0.05,0.04,0.45,39.96,13.05)}78.652%{transform:matrix(0.91,-0.05,0.04,0.45,40.18,13.19)}79.775%{transform:matrix(0.91,-0.05,0.04,0.45,40.4,13.32)}80.899%{transform:matrix(0.91,-0.05,0.04,0.45,40.62,13.47)}82.022%{transform:matrix(0.91,-0.05,0.04,0.45,40.82,13.61)}83.146%{transform:matrix(0.91,-0.05,0.04,0.45,41.01,13.76)}84.27%{transform:matrix(0.91,-0.05,0.04,0.45,41.18,13.91)}85.393%{transform:matrix(0.91,-0.05,0.04,0.45,41.34,14.05)}86.517%{transform:matrix(0.91,-0.05,0.04,0.45,41.48,14.19)}87.64%{transform:matrix(0.91,-0.05,0.04,0.45,41.6,14.33)}88.764%{transform:matrix(0.91,-0.05,0.04,0.45,41.69,14.46)}89.888%{transform:matrix(0.91,-0.05,0.04,0.45,41.76,14.58)}91.011%{transform:matrix(0.91,-0.05,0.04,0.45,41.81,14.69)}92.135%{transform:matrix(0.91,-0.05,0.04,0.45,41.84,14.79)}93.258%{transform:matrix(0.91,-0.05,0.04,0.45,41.85,14.88)}94.382%{transform:matrix(0.91,-0.05,0.04,0.45,41.83,14.95)}95.506%{transform:matrix(0.91,-0.05,0.04,0.45,41.8,15.01)}96.629%{transform:matrix(0.91,-0.05,0.04,0.45,41.74,15.05)}97.753%{transform:matrix(0.91,-0.05,0.04,0.45,41.68,15.07)}98.876%{transform:matrix(0.91,-0.05,0.04,0.45,41.59,15.08)}100%{transform:matrix(0.91,-0.05,0.04,0.45,41.5,15.06)}}</style></svg>