<svg width="250" height="250" viewBox="-125 -125 250 250" role="img" aria-label="Animated bloub avatar" xmlns="http://www.w3.org/2000/svg"><defs><mask id="bot-mask-hkuzfp" maskUnits="userSpaceOnUse" x="-158" y="-158" width="316" height="316"><path d="M91.76 0.33C93.06 3.31 94.09 6.47 94.78 9.65C95.47 12.82 95.86 16.12 95.92 19.37C95.98 22.62 95.71 25.93 95.13 29.13C94.56 32.33 93.65 35.53 92.46 38.55C91.27 41.57 89.75 44.53 87.99 47.26C86.23 49.99 84.17 52.6 81.91 54.93C79.65 57.27 77.12 59.42 74.45 61.27C71.77 63.12 68.87 64.74 65.89 66.03C62.91 67.32 59.74 68.34 56.56 69.02C53.38 69.7 49.48 68.96 46.83 70.13C44.18 71.31 42.86 74.23 40.67 76.06C38.47 77.9 36.12 79.62 33.66 81.14C31.2 82.65 28.59 84.02 25.92 85.17C23.25 86.32 20.46 87.3 17.64 88.05C14.81 88.81 11.9 89.36 8.99 89.69C6.08 90.03 3.11 90.15 0.19 90.05C-2.74 89.95 -5.69 89.63 -8.56 89.11C-11.43 88.59 -14.29 87.84 -17.04 86.91C-19.78 85.98 -22.49 84.84 -25.05 83.53C-27.62 82.22 -30.07 80.66 -32.42 79.06C-34.78 77.46 -36.4 74.8 -39.16 73.94C-41.91 73.07 -45.7 74.19 -48.95 73.87C-52.2 73.55 -55.49 72.92 -58.64 72.01C-61.79 71.1 -64.93 69.87 -67.88 68.39C-70.82 66.91 -73.69 65.12 -76.32 63.12C-78.95 61.11 -81.45 58.82 -83.67 56.36C-85.89 53.9 -87.92 51.18 -89.65 48.35C-91.38 45.51 -92.87 42.47 -94.05 39.36C-95.23 36.26 -96.13 32.99 -96.71 29.72C-97.29 26.46 -97.57 23.08 -97.54 19.77C-97.51 16.46 -97.17 13.09 -96.53 9.85C-95.89 6.61 -94.93 3.38 -93.72 0.33C-92.5 -2.73 -90.97 -5.71 -89.23 -8.48C-87.48 -11.24 -85.45 -13.88 -83.25 -16.27C-81.05 -18.65 -77.97 -20.6 -76.03 -22.79C-74.09 -24.98 -72.47 -26.93 -71.62 -29.41C-70.77 -31.89 -71.4 -34.96 -70.93 -37.68C-70.46 -40.41 -69.74 -43.15 -68.8 -45.77C-67.86 -48.39 -66.67 -50.97 -65.28 -53.4C-63.89 -55.82 -62.25 -58.16 -60.45 -60.31C-58.66 -62.46 -56.63 -64.49 -54.48 -66.29C-52.33 -68.09 -49.98 -69.72 -47.55 -71.12C-45.12 -72.51 -42.52 -73.71 -39.89 -74.65C-37.26 -75.6 -34.5 -76.32 -31.75 -76.78C-29.01 -77.25 -26.18 -77.47 -23.41 -77.46C-20.64 -77.44 -17.83 -77.17 -15.13 -76.68C-12.43 -76.18 -9.74 -75.44 -7.18 -74.5C-4.63 -73.56 -2.14 -72.38 0.19 -71.04C2.51 -69.71 4.63 -67.64 6.77 -66.47C8.9 -65.3 10.71 -64.02 12.98 -64.01C15.26 -64 17.89 -65.83 20.43 -66.41C22.98 -66.98 25.63 -67.34 28.26 -67.45C30.89 -67.56 33.59 -67.43 36.21 -67.06C38.83 -66.69 41.47 -66.07 43.99 -65.23C46.51 -64.39 49.01 -63.3 51.34 -62C53.68 -60.71 55.93 -59.18 58 -57.48C60.06 -55.78 62 -53.86 63.72 -51.81C65.44 -49.76 66.99 -47.52 68.31 -45.19C69.62 -42.86 70.74 -40.37 71.61 -37.85C72.48 -35.32 73.12 -32.68 73.51 -30.04C73.9 -27.41 72.77 -24.44 73.96 -22.05C75.14 -19.65 78.45 -17.98 80.62 -15.67C82.79 -13.37 85.12 -10.89 86.98 -8.22C88.84 -5.55 90.46 -2.65 91.76 0.33Z" fill="#fff"/><path d="M-10 -12A10 10 0 0 1 0 -22L0 -22A10 10 0 0 1 10 -12L10 12A10 10 0 0 1 0 22L0 22A10 10 0 0 1 -10 12Z" class="oeil0" opacity="1" fill="#000"/><path d="M-14 0A8.5 8.5 0 0 1 -5.5 -8.5L5.5 -8.5A8.5 8.5 0 0 1 14 0L14 0A8.5 8.5 0 0 1 5.5 8.5L-5.5 8.5A8.5 8.5 0 0 1 -14 0Z" class="oeil1" opacity="1" fill="#000"/></mask></defs><g fill="none" stroke-linecap="round"></g><g opacity="1"><path d="M91.76 0.33C93.06 3.31 94.09 6.47 94.78 9.65C95.47 12.82 95.86 16.12 95.92 19.37C95.98 22.62 95.71 25.93 95.13 29.13C94.56 32.33 93.65 35.53 92.46 38.55C91.27 41.57 89.75 44.53 87.99 47.26C86.23 49.99 84.17 52.6 81.91 54.93C79.65 57.27 77.12 59.42 74.45 61.27C71.77 63.12 68.87 64.74 65.89 66.03C62.91 67.32 59.74 68.34 56.56 69.02C53.38 69.7 49.48 68.96 46.83 70.13C44.18 71.31 42.86 74.23 40.67 76.06C38.47 77.9 36.12 79.62 33.66 81.14C31.2 82.65 28.59 84.02 25.92 85.17C23.25 86.32 20.46 87.3 17.64 88.05C14.81 88.81 11.9 89.36 8.99 89.69C6.08 90.03 3.11 90.15 0.19 90.05C-2.74 89.95 -5.69 89.63 -8.56 89.11C-11.43 88.59 -14.29 87.84 -17.04 86.91C-19.78 85.98 -22.49 84.84 -25.05 83.53C-27.62 82.22 -30.07 80.66 -32.42 79.06C-34.78 77.46 -36.4 74.8 -39.16 73.94C-41.91 73.07 -45.7 74.19 -48.95 73.87C-52.2 73.55 -55.49 72.92 -58.64 72.01C-61.79 71.1 -64.93 69.87 -67.88 68.39C-70.82 66.91 -73.69 65.12 -76.32 63.12C-78.95 61.11 -81.45 58.82 -83.67 56.36C-85.89 53.9 -87.92 51.18 -89.65 48.35C-91.38 45.51 -92.87 42.47 -94.05 39.36C-95.23 36.26 -96.13 32.99 -96.71 29.72C-97.29 26.46 -97.57 23.08 -97.54 19.77C-97.51 16.46 -97.17 13.09 -96.53 9.85C-95.89 6.61 -94.93 3.38 -93.72 0.33C-92.5 -2.73 -90.97 -5.71 -89.23 -8.48C-87.48 -11.24 -85.45 -13.88 -83.25 -16.27C-81.05 -18.65 -77.97 -20.6 -76.03 -22.79C-74.09 -24.98 -72.47 -26.93 -71.62 -29.41C-70.77 -31.89 -71.4 -34.96 -70.93 -37.68C-70.46 -40.41 -69.74 -43.15 -68.8 -45.77C-67.86 -48.39 -66.67 -50.97 -65.28 -53.4C-63.89 -55.82 -62.25 -58.16 -60.45 -60.31C-58.66 -62.46 -56.63 -64.49 -54.48 -66.29C-52.33 -68.09 -49.98 -69.72 -47.55 -71.12C-45.12 -72.51 -42.52 -73.71 -39.89 -74.65C-37.26 -75.6 -34.5 -76.32 -31.75 -76.78C-29.01 -77.25 -26.18 -77.47 -23.41 -77.46C-20.64 -77.44 -17.83 -77.17 -15.13 -76.68C-12.43 -76.18 -9.74 -75.44 -7.18 -74.5C-4.63 -73.56 -2.14 -72.38 0.19 -71.04C2.51 -69.71 4.63 -67.64 6.77 -66.47C8.9 -65.3 10.71 -64.02 12.98 -64.01C15.26 -64 17.89 -65.83 20.43 -66.41C22.98 -66.98 25.63 -67.34 28.26 -67.45C30.89 -67.56 33.59 -67.43 36.21 -67.06C38.83 -66.69 41.47 -66.07 43.99 -65.23C46.51 -64.39 49.01 -63.3 51.34 -62C53.68 -60.71 55.93 -59.18 58 -57.48C60.06 -55.78 62 -53.86 63.72 -51.81C65.44 -49.76 66.99 -47.52 68.31 -45.19C69.62 -42.86 70.74 -40.37 71.61 -37.85C72.48 -35.32 73.12 -32.68 73.51 -30.04C73.9 -27.41 72.77 -24.44 73.96 -22.05C75.14 -19.65 78.45 -17.98 80.62 -15.67C82.79 -13.37 85.12 -10.89 86.98 -8.22C88.84 -5.55 90.46 -2.65 91.76 0.33Z" fill="#f9f9f9"/><g mask="url(#bot-mask-hkuzfp)"><rect x="-158" y="-158" width="316" height="316" fill="#0a0a0c"/></g></g><g></g><g fill="none" stroke-linecap="round"></g><style>.oeil0,.oeil1{transform-box:view-box;transform-origin:0 0;animation-duration:2.967s;animation-iteration-count:infinite;animation-timing-function:linear;animation-direction:alternate}.oeil0{animation-name:oeil0}.oeil1{animation-name:oeil1}@keyframes oeil0{0%{transform:matrix(0.88,-0.2,0.13,0.97,-32.22,-7.17)}1.124%{transform:matrix(0.88,-0.2,0.13,0.97,-32.27,-7.13)}2.247%{transform:matrix(0.88,-0.2,0.13,0.97,-32.32,-7.1)}3.371%{transform:matrix(0.88,-0.2,0.13,0.97,-32.38,-7.06)}4.494%{transform:matrix(0.88,-0.2,0.13,0.97,-32.45,-7.04)}5.618%{transform:matrix(0.88,-0.2,0.13,0.97,-32.52,-7.01)}6.742%{transform:matrix(0.88,-0.2,0.13,0.97,-32.6,-6.99)}7.865%{transform:matrix(0.88,-0.2,0.13,0.97,-32.68,-6.97)}8.989%{transform:matrix(0.88,-0.2,0.13,0.97,-32.76,-6.96)}10.112%{transform:matrix(0.88,-0.2,0.13,0.97,-32.84,-6.95)}11.236%{transform:matrix(0.88,-0.2,0.13,0.97,-32.93,-6.95)}12.36%{transform:matrix(0.88,-0.2,0.13,0.97,-33.02,-6.94)}13.483%{transform:matrix(0.88,-0.2,0.13,0.97,-33.11,-6.95)}14.607%{transform:matrix(0.88,-0.2,0.13,0.97,-33.2,-6.95)}15.73%{transform:matrix(0.88,-0.2,0.13,0.97,-33.29,-6.95)}16.854%{transform:matrix(0.88,-0.2,0.13,0.97,-33.38,-6.96)}17.978%{transform:matrix(0.88,-0.2,0.13,0.97,-33.46,-6.97)}19.101%{transform:matrix(0.88,-0.21,0.13,0.97,-33.54,-6.98)}20.225%{transform:matrix(0.87,-0.21,0.13,0.97,-33.62,-6.99)}21.348%{transform:matrix(0.87,-0.21,0.13,0.97,-33.69,-6.99)}22.472%{transform:matrix(0.87,-0.21,0.13,0.97,-33.76,-7)}23.596%{transform:matrix(0.87,-0.21,0.13,0.97,-33.82,-7)}24.719%{transform:matrix(0.87,-0.21,0.13,0.97,-33.88,-7)}25.843%{transform:matrix(0.87,-0.21,0.13,0.97,-33.94,-7)}26.966%{transform:matrix(0.87,-0.21,0.13,0.97,-34,-6.99)}28.09%{transform:matrix(0.87,-0.21,0.13,0.97,-34.06,-6.98)}29.213%{transform:matrix(0.87,-0.21,0.13,0.97,-34.11,-6.97)}30.337%{transform:matrix(0.87,-0.21,0.13,0.97,-34.16,-6.96)}31.461%{transform:matrix(0.87,-0.21,0.13,0.97,-34.22,-6.94)}32.584%{transform:matrix(0.87,-0.21,0.13,0.97,-34.28,-6.91)}33.708%{transform:matrix(0.87,-0.21,0.13,0.97,-34.34,-6.89)}34.831%{transform:matrix(0.87,-0.21,0.13,0.97,-34.41,-6.86)}35.955%{transform:matrix(0.87,-0.21,0.13,0.97,-34.49,-6.82)}37.079%{transform:matrix(0.87,-0.21,0.13,0.97,-34.57,-6.79)}38.202%{transform:matrix(0.87,-0.21,0.13,0.97,-34.65,-6.75)}39.326%{transform:matrix(0.87,-0.21,0.13,0.97,-34.75,-6.71)}40.449%{transform:matrix(0.87,-0.21,0.13,0.97,-34.86,-6.67)}41.573%{transform:matrix(0.87,-0.21,0.13,0.97,-34.97,-6.63)}42.697%{transform:matrix(0.87,-0.21,0.13,0.97,-35.09,-6.59)}43.82%{transform:matrix(0.87,-0.21,0.13,0.97,-35.23,-6.55)}44.944%{transform:matrix(0.87,-0.21,0.13,0.97,-35.36,-6.51)}46.067%{transform:matrix(0.87,-0.21,0.13,0.97,-35.51,-6.47)}47.191%{transform:matrix(0.87,-0.21,0.13,0.97,-35.66,-6.43)}48.315%{transform:matrix(0.87,-0.13,0.13,0.6,-35.81,-6.39)}49.438%{transform:matrix(0.86,-0.05,0.13,0.22,-35.97,-6.35)}50.562%{transform:matrix(0.86,-0.05,0.13,0.23,-36.13,-6.32)}51.685%{transform:matrix(0.86,-0.11,0.13,0.54,-36.28,-6.28)}52.809%{transform:matrix(0.86,-0.18,0.13,0.85,-36.43,-6.25)}53.933%{transform:matrix(0.86,-0.21,0.13,0.97,-36.57,-6.22)}55.056%{transform:matrix(0.86,-0.2,0.13,0.97,-36.71,-6.19)}56.18%{transform:matrix(0.86,-0.2,0.13,0.97,-36.84,-6.15)}57.303%{transform:matrix(0.86,-0.2,0.13,0.97,-36.95,-6.12)}58.427%{transform:matrix(0.86,-0.2,0.13,0.97,-37.05,-6.09)}59.551%{transform:matrix(0.86,-0.2,0.13,0.97,-37.13,-6.06)}60.674%{transform:matrix(0.86,-0.2,0.13,0.97,-37.2,-6.03)}61.798%{transform:matrix(0.86,-0.2,0.13,0.97,-37.25,-5.99)}62.921%{transform:matrix(0.86,-0.2,0.13,0.97,-37.28,-5.95)}64.045%{transform:matrix(0.86,-0.2,0.13,0.97,-37.29,-5.91)}65.169%{transform:matrix(0.86,-0.2,0.13,0.97,-37.28,-5.87)}66.292%{transform:matrix(0.86,-0.2,0.13,0.97,-37.25,-5.82)}67.416%{transform:matrix(0.86,-0.2,0.13,0.97,-37.2,-5.76)}68.539%{transform:matrix(0.86,-0.2,0.13,0.97,-37.13,-5.7)}69.663%{transform:matrix(0.86,-0.2,0.13,0.97,-37.05,-5.64)}70.787%{transform:matrix(0.86,-0.2,0.13,0.97,-36.96,-5.57)}71.91%{transform:matrix(0.86,-0.2,0.13,0.97,-36.85,-5.49)}73.034%{transform:matrix(0.86,-0.2,0.13,0.97,-36.73,-5.4)}74.157%{transform:matrix(0.87,-0.2,0.13,0.97,-36.6,-5.31)}75.281%{transform:matrix(0.87,-0.2,0.13,0.97,-36.46,-5.21)}76.404%{transform:matrix(0.87,-0.2,0.14,0.97,-36.33,-5.11)}77.528%{transform:matrix(0.87,-0.2,0.14,0.98,-36.19,-5)}78.652%{transform:matrix(0.87,-0.2,0.14,0.98,-36.06,-4.89)}79.775%{transform:matrix(0.87,-0.2,0.14,0.98,-35.93,-4.77)}80.899%{transform:matrix(0.87,-0.2,0.14,0.98,-35.81,-4.65)}82.022%{transform:matrix(0.87,-0.2,0.14,0.98,-35.7,-4.53)}83.146%{transform:matrix(0.87,-0.2,0.14,0.98,-35.6,-4.4)}84.27%{transform:matrix(0.87,-0.2,0.14,0.98,-35.51,-4.28)}85.393%{transform:matrix(0.87,-0.2,0.14,0.98,-35.45,-4.15)}86.517%{transform:matrix(0.88,-0.2,0.14,0.98,-35.4,-4.03)}87.64%{transform:matrix(0.88,-0.2,0.14,0.98,-35.36,-3.92)}88.764%{transform:matrix(0.88,-0.2,0.14,0.98,-35.35,-3.8)}89.888%{transform:matrix(0.88,-0.2,0.14,0.98,-35.35,-3.7)}91.011%{transform:matrix(0.88,-0.2,0.15,0.98,-35.37,-3.6)}92.135%{transform:matrix(0.88,-0.2,0.15,0.98,-35.4,-3.51)}93.258%{transform:matrix(0.88,-0.2,0.15,0.98,-35.45,-3.43)}94.382%{transform:matrix(0.88,-0.2,0.15,0.98,-35.52,-3.36)}95.506%{transform:matrix(0.88,-0.2,0.15,0.98,-35.59,-3.31)}96.629%{transform:matrix(0.88,-0.2,0.15,0.98,-35.68,-3.26)}97.753%{transform:matrix(0.88,-0.2,0.15,0.98,-35.77,-3.24)}98.876%{transform:matrix(0.88,-0.2,0.15,0.98,-35.87,-3.22)}100%{transform:matrix(0.87,-0.2,0.15,0.98,-35.97,-3.22)}}@keyframes oeil1{0%{transform:matrix(0.92,0.39,-0.39,0.92,12.42,-0.76)}1.124%{transform:matrix(0.92,0.39,-0.39,0.92,12.4,-0.72)}2.247%{transform:matrix(0.92,0.39,-0.39,0.92,12.37,-0.68)}3.371%{transform:matrix(0.92,0.39,-0.39,0.92,12.34,-0.65)}4.494%{transform:matrix(0.92,0.39,-0.39,0.92,12.3,-0.62)}5.618%{transform:matrix(0.92,0.39,-0.39,0.92,12.25,-0.6)}6.742%{transform:matrix(0.92,0.39,-0.39,0.92,12.21,-0.58)}7.865%{transform:matrix(0.92,0.39,-0.38,0.92,12.15,-0.57)}8.989%{transform:matrix(0.92,0.39,-0.38,0.92,12.09,-0.56)}10.112%{transform:matrix(0.92,0.39,-0.38,0.92,12.03,-0.55)}11.236%{transform:matrix(0.92,0.39,-0.38,0.92,11.96,-0.55)}12.36%{transform:matrix(0.92,0.39,-0.38,0.92,11.89,-0.56)}13.483%{transform:matrix(0.92,0.39,-0.38,0.92,11.81,-0.57)}14.607%{transform:matrix(0.92,0.39,-0.38,0.92,11.74,-0.58)}15.73%{transform:matrix(0.92,0.39,-0.38,0.92,11.67,-0.59)}16.854%{transform:matrix(0.92,0.39,-0.38,0.92,11.59,-0.61)}17.978%{transform:matrix(0.92,0.39,-0.38,0.92,11.52,-0.63)}19.101%{transform:matrix(0.92,0.39,-0.38,0.92,11.45,-0.65)}20.225%{transform:matrix(0.92,0.39,-0.38,0.92,11.38,-0.66)}21.348%{transform:matrix(0.92,0.39,-0.38,0.92,11.32,-0.68)}22.472%{transform:matrix(0.92,0.39,-0.38,0.92,11.25,-0.69)}23.596%{transform:matrix(0.92,0.39,-0.38,0.92,11.2,-0.7)}24.719%{transform:matrix(0.92,0.39,-0.38,0.92,11.14,-0.71)}25.843%{transform:matrix(0.92,0.39,-0.38,0.92,11.09,-0.71)}26.966%{transform:matrix(0.92,0.39,-0.38,0.92,11.04,-0.71)}28.09%{transform:matrix(0.92,0.39,-0.38,0.92,11,-0.7)}29.213%{transform:matrix(0.92,0.39,-0.38,0.92,10.96,-0.69)}30.337%{transform:matrix(0.92,0.39,-0.38,0.92,10.92,-0.68)}31.461%{transform:matrix(0.92,0.39,-0.38,0.92,10.88,-0.66)}32.584%{transform:matrix(0.92,0.39,-0.38,0.92,10.84,-0.64)}33.708%{transform:matrix(0.92,0.39,-0.38,0.92,10.8,-0.61)}34.831%{transform:matrix(0.92,0.39,-0.38,0.92,10.75,-0.58)}35.955%{transform:matrix(0.92,0.39,-0.38,0.92,10.7,-0.54)}37.079%{transform:matrix(0.92,0.39,-0.38,0.92,10.65,-0.5)}38.202%{transform:matrix(0.92,0.39,-0.38,0.92,10.59,-0.46)}39.326%{transform:matrix(0.92,0.39,-0.38,0.92,10.53,-0.42)}40.449%{transform:matrix(0.92,0.38,-0.38,0.92,10.46,-0.37)}41.573%{transform:matrix(0.92,0.38,-0.38,0.92,10.38,-0.32)}42.697%{transform:matrix(0.92,0.38,-0.38,0.92,10.29,-0.28)}43.82%{transform:matrix(0.92,0.38,-0.38,0.92,10.2,-0.23)}44.944%{transform:matrix(0.92,0.38,-0.38,0.92,10.1,-0.18)}46.067%{transform:matrix(0.92,0.38,-0.38,0.92,10,-0.13)}47.191%{transform:matrix(0.92,0.38,-0.38,0.92,9.89,-0.09)}48.315%{transform:matrix(0.92,0.24,-0.38,0.57,9.77,-0.04)}49.438%{transform:matrix(0.92,0.09,-0.38,0.21,9.65,0)}50.562%{transform:matrix(0.92,0.09,-0.38,0.22,9.54,0.04)}51.685%{transform:matrix(0.92,0.21,-0.38,0.51,9.42,0.08)}52.809%{transform:matrix(0.92,0.33,-0.38,0.81,9.31,0.12)}53.933%{transform:matrix(0.92,0.38,-0.38,0.92,9.2,0.16)}55.056%{transform:matrix(0.92,0.38,-0.38,0.92,9.1,0.2)}56.18%{transform:matrix(0.92,0.38,-0.38,0.92,9.01,0.23)}57.303%{transform:matrix(0.92,0.38,-0.38,0.92,8.93,0.27)}58.427%{transform:matrix(0.92,0.38,-0.38,0.92,8.86,0.3)}59.551%{transform:matrix(0.92,0.38,-0.38,0.92,8.81,0.34)}60.674%{transform:matrix(0.92,0.38,-0.38,0.92,8.77,0.38)}61.798%{transform:matrix(0.92,0.38,-0.38,0.92,8.76,0.42)}62.921%{transform:matrix(0.92,0.38,-0.38,0.92,8.76,0.46)}64.045%{transform:matrix(0.92,0.38,-0.38,0.92,8.78,0.5)}65.169%{transform:matrix(0.92,0.38,-0.38,0.92,8.81,0.55)}66.292%{transform:matrix(0.92,0.38,-0.38,0.92,8.87,0.61)}67.416%{transform:matrix(0.92,0.38,-0.38,0.92,8.94,0.67)}68.539%{transform:matrix(0.92,0.38,-0.38,0.92,9.03,0.74)}69.663%{transform:matrix(0.92,0.38,-0.38,0.93,9.13,0.81)}70.787%{transform:matrix(0.92,0.38,-0.38,0.93,9.24,0.9)}71.91%{transform:matrix(0.92,0.38,-0.38,0.93,9.36,0.98)}73.034%{transform:matrix(0.92,0.38,-0.38,0.93,9.49,1.08)}74.157%{transform:matrix(0.92,0.38,-0.38,0.93,9.63,1.17)}75.281%{transform:matrix(0.92,0.38,-0.37,0.93,9.89,1.24)}76.404%{transform:matrix(0.92,0.38,-0.37,0.93,10.17,1.32)}77.528%{transform:matrix(0.92,0.38,-0.37,0.93,10.46,1.4)}78.652%{transform:matrix(0.92,0.38,-0.37,0.93,10.75,1.49)}79.775%{transform:matrix(0.92,0.37,-0.37,0.93,11.05,1.59)}80.899%{transform:matrix(0.92,0.37,-0.37,0.93,11.34,1.69)}82.022%{transform:matrix(0.92,0.37,-0.37,0.93,11.62,1.8)}83.146%{transform:matrix(0.92,0.37,-0.37,0.93,11.89,1.92)}84.27%{transform:matrix(0.92,0.37,-0.37,0.93,12.14,2.04)}85.393%{transform:matrix(0.92,0.37,-0.37,0.93,12.36,2.16)}86.517%{transform:matrix(0.92,0.37,-0.37,0.93,12.56,2.28)}87.64%{transform:matrix(0.92,0.37,-0.37,0.93,12.74,2.4)}88.764%{transform:matrix(0.92,0.37,-0.37,0.93,12.89,2.51)}89.888%{transform:matrix(0.93,0.37,-0.37,0.93,13.02,2.62)}91.011%{transform:matrix(0.93,0.37,-0.37,0.93,13.12,2.72)}92.135%{transform:matrix(0.93,0.37,-0.37,0.93,13.19,2.81)}93.258%{transform:matrix(0.93,0.37,-0.37,0.93,13.22,2.89)}94.382%{transform:matrix(0.93,0.37,-0.37,0.93,13.24,2.96)}95.506%{transform:matrix(0.93,0.37,-0.37,0.93,13.22,3.01)}96.629%{transform:matrix(0.93,0.37,-0.37,0.93,13.19,3.05)}97.753%{transform:matrix(0.93,0.37,-0.37,0.93,13.13,3.07)}98.876%{transform:matrix(0.93,0.37,-0.36,0.93,13.05,3.07)}100%{transform:matrix(0.93,0.37,-0.36,0.93,12.95,3.06)}}</style></svg>